<svg xmlns="http://www.w3.org/2000/svg" width="36" height="36" viewBox="0 0 24 24" class="icon__body"><g class="nc-icon-wrapper"><path d="M23.5 21H23V3.5A1.46 1.46 0 0 0 21.5 2h-19A1.46 1.46 0 0 0 1 3.5V21H.5a.5.5 0 0 0 0 1h23a.5.5 0 0 0 0-1zM2.5 3h19a.46.46 0 0 1 .5.5V5H2V3.51A.47.47 0 0 1 2.5 3zM8 21H4v-7h4zm1 0v-7.5a.5.5 0 0 0-.5-.5h-5a.5.5 0 0 0-.5.5V21H2V6h20v15z"></path><path d="M19.5 18h-9a.5.5 0 0 1-.5-.5v-9a.5.5 0 0 1 .5-.5h9a.5.5 0 0 1 .5.5v9a.5.5 0 0 1-.5.5zM11 17h8V9h-8z"></path><path d="M12.81 11.17h.74v2.3a2.14 2.14 0 0 1-.05.52 1.13 1.13 0 0 1-.18.4.93.93 0 0 1-.33.26 1.26 1.26 0 0 1-.51.09 1.91 1.91 0 0 1-.56-.07 1.18 1.18 0 0 1-.39-.19l.2-.66.32.16a.86.86 0 0 0 .34.07.35.35 0 0 0 .33-.15 1 1 0 0 0 .09-.46z"></path><path d="M16.58 14.7l-.52-2.14-.52 2.14h-.66l-1-3.53h.76l.51 2.15.08.41.07-.42.45-2.06h.63l.47 2.07.08.41.07-.41.48-2.15h.75l-1 3.53z"></path></g></svg>