<svg xmlns="http://www.w3.org/2000/svg" width="896" height="1184"><path fill="none" fill-opacity="0" stroke-opacity="0" stroke-width=".3" d="M0 1184h896V0H0v1184m314-847c13.88-.38 29.5 4.67 42 10 28.75 12.26 48.56 34.51 56 65 1.4 5.76 2.59 12.01 3 18 .35 5.19.28 10.8 0 16-1.3 23.98-7.89 49.69-16.97 71.02-9.09 21.34-21.27 36.97-31.03 56.98 5.87 1.87 12.47 3.14 18 5 17.82 2.55 32.66.01 49-9-.5-3.91-5.44-5.57-7-9-5.19-6.32-8.63-14.41-8-23 .63-8.59 1.49-18.03 5.92-25.08 4.44-7.04 7.36-11.73 13.83-17.17 6.47-5.44 13.18-8.59 21.47-10.53 8.29-1.93 19.14-2.26 27 1.56 7.86 3.81 11.63 7.63 14.1 16.9 2.47 9.27-1.78 15.14-5.24 24.4-3.47 9.25-17.32 7.88-9.83.17s9.43-13.28 8.75-22.25c-.68-8.97-8.81-13.2-16.22-14.78-7.41-1.57-16.42 3.57-22.86 7.7-6.44 4.13-9.03 11.94-13.69 18.31-4.66 6.37-3.64 17.28-4.25 24.79-.61 7.52 3.75 17.31 8.77 22.23 5.03 4.91 21.18-1.28 19.91 8.43-1.27 9.71-19.09 1.98-24.4 5.58-5.32 3.6-14.31 6.33-18.51 12.49-4.19 6.16-9.88 10.65-13.5 17.5-3.63 6.84-5.38 15.79-7.23 23.77-1.85 7.99-.66 20.27 1.98 27.98 1.91 5.58 6.92 14.3 12 18 25.28 15.65 63.89 1.52 77-25 3.12-6.32 5.18-13.18 7-20 2.06-7.72 2.17-14.24 0-22-6.39-22.91-36.74-7.97-45 7-2.34 7.38-5.84 11.09-2.08 19.08 3.77 7.98-8.71 5.51-8.89-2.11-.19-7.61-.28-15.42 3.74-21.2 4.02-5.78 6.51-8.91 11.48-13.52 4.97-4.61 9.58-6.92 15.44-9.55 5.87-2.64 11.31-5.55 17.38-7.63 6.08-2.07 11.09-5.55 16.93-8.07 13.8-5.95 29.08-18 21-35 9.85-.91 11.86 11.44 11 19-2.48 16.26-28.23 29.38-42 33-3.46 3.09 4 8.39 6.32 13.68 2.32 5.29 4.28 13.5 3.68 20.32-3.84 43.61-45.19 74.47-89.01 65.01C377.18 681.55 369.3 619.49 401 590c-10.42-5.83-21.13-1.03-31.69-7.31-10.57-6.28-14.24 5.87-21.31 12.31-6.61 6.61-12.91 13.94-20 20-29.18 24.93-63.06 45.95-102 48 3.08 8.73 10.35 17.54 8 27-8.43-4.09-17.63-7.61-24.25-14.75-6.61-7.15-9.52-17.95-20.75-18.25-1.61 8.18-1.83 9.63-4.93 18.07-3.09 8.45-6.5 1.32-8.05-5.09-1.54-6.42-4.96-10.32-6.01-16.99-1.05-6.66 2.49-12.77-1.01-18.99-1.13-2.41-2.31-4.45-3-7-.78-1.18-2.55-2.94-4-3-5.29 5.18-11.71 10.42-17 15 .66-5.83-1.32-12.99 1-18 0-1.33-.03-2.67 0-4 .19-9.68 3.93-16.79 12-22 2.78-1.8 6.59-4.03 8-7 1.62-5.33-.07-16.63-4-19-5.45 3.33-5.53 13.56-12.75 18.25-7.22 4.68-15.95 6.03-23.25 10.75-.84-8.45 2.41-15.12 3.98-23.02 1.56-7.91 9.17-8.32 14.1-12.9 4.92-4.59-7.05-14.56-5.08-20.08-12.34-.93-29.18-1.59-36-12 11.32 1.2 15.78-9.06 24.08-13.92 8.31-4.86 21.08-4.76 28.92-10.08-3.21-5.77-12.58-9.91-12-19-10.07-1.39-19.64-10.34-21-20-.07-.99 0-2.01 0-3-2.8-12.77.74-23.5 6-35 .92-2.01 2.02-4.2 3-6 1.98-9.01 10.74-14.6 15.75-22.25 5.01-7.64 17.05-12.65 15.25-23.75 11.04 9.6 18.43-9.15 30.23-11.77 11.8-2.62 18.5-16.75 23.77-26.23 2.26 6.35 3.09 13.63 11.02 11.02 7.93-2.6 11.34-3.87 12.91-11.09 1.57-7.23 7.23-8.04 10.32-13.68 3.09-5.64 9.26-7.16 11.75-13.25 4.44 7.67 1.58 19.44 0 28 12.26 2.28 18-7.04 26.7-13.3 8.69-6.26 23.14-6.56 33.3-5.7-1.41 5.65-13.78 11.69-9 16m432 186c4.83 1.32 9.31 1.39 11 7 1.07 3.57-.86 7.06-6 5-4.4-.26-13.56-7.12-16.75-.75-3.19 6.37-7.89 8.77-8.24 15.76-.36 6.99-1.9 13.64-1.01 20.99.89 7.35-2.95 15.41 1 21 2.93-11.4 2.2-27.19 10.75-36.25 8.55-9.06 14.2-16 24.25-22.75-2.7 16.7 1.16 45.85-17.25 55.75-18.41 9.9-25.62 23.24-30.75 43.25 9.99-4.92 13.03-17.6 25.23-25.77 12.2-8.17 30.05-7.56 44.77-9.23-1.57 5.77-7.56 8.62-9.77 14.23-2.21 5.61-6.54 8.66-10.48 13.52-3.93 4.86-7.59 7.76-14.43 9.57-6.84 1.82-11.35 4.4-19.54.9-8.2-3.5-7.37 7.4-6.78 12.78 13.59 5.35 15.96 21.22 10 33-2.59.65 4.19 2.02 5-1-.57 2.49-2.33 4.44-3 7-.79 5.62-.28 12.39-7.08 16.92-6.8 4.52-12.83 5.84-20.92 4.08 4.96 4.41-3.41 7.35-7 8-2.45 1.87-.18 5.82 3 8 7.91 4.6 19.66 6.88 20.92 18.08 1.27 11.2 6.01 19.29 12.08 27.92-9.87-1.43-15.71.11-25.69-6.3-9.99-6.42-9.55 7.64-16.31 12.3-6.75-13.26-23.09-24.68-15-42-5.62 4.23-18.55 11.78-13.69 20.69 4.85 8.92 8.95 20.48 3.69 30.31-.28 2-.36 3.14-1 5-2.08 6.03-5.9 12.3-10 17-4.35-15.77-14.37-35.83-1-50 1.33-2.1 2.34-4.39 2-7-8.57 5.49-14.58 15.22-22 22-.78 2.97-1.21 6.02-2 9-.54 3.84 1.22 8.99-1 12v1c-.23 10-2.65 16.65-1 27 1.06 6.65-.04 10.18-7.67 10.67-7.63.49-7.41-6.46-14.55-4.89-7.15 1.58-2.6-7.09-3.78-12.78-1.5-4.27-6.02-17.67-11.74-13.74-5.73 3.92-10.04 8.61-17.34 10.66-7.3 2.06-18.92.66-26.92 1.08 5.95-11.71 18.36-22.38 32-24 2.42-.56 16.81-1.08 11.74-5.74-5.07-4.67-10.8.04-14.74-6.26-.43-.17-1 0-1 0-4.57 0-8.64-.26-13-1 3.85-9.07 16.03-12.03 25-15 .09-7.12-1.67-15.11 0-21-1.81-8.91-2.38-18.88-3-28-.56-8.19-.29-15.73 0-23-.21-3.05-1.33-7.22-1-11 3.38-38.39 2.04-79.88 2-119-4.74-.28-7.07 5.26-8 9-14.46 33.52-24.56 69.59-35.98 104.02-11.41 34.44-27.11 65.81-43.02 97.98-10.62 21.48-27.81 45.03-50 56-6.77 3.35-11.19 6.31-18.75 7.39-7.56 1.09-17.67.23-24.48-3.16-6.81-3.4-12.38-5.69-16.54-12.46-4.16-6.77-5.85-12.09-8.21-19.79-2.35-7.71-1.88-17.93-1.03-25.99.85-8.05 2.78-16.05 5.79-23.21 3.01-7.16 5.57-12.36 10.97-18.03 5.4-5.66 7.15-9.27 14.33-13.67s11.66-5.61 20.99-8.01c9.34-2.4 16.93 7.74 4.93 7.93-12 .19-13.4 1.1-22 7-4.53 3.11-9.51 7.31-13 12-15.33 20.62-19.19 48.65-9 72 3 4.8 8.37 11.04 13 14 3.39 1.19 6.55 3 10 4 6.93.97 15.81-1.57 22-4 2.33-.91 4.78-1.63 7-3 19.41-12.02 34.86-32.63 46-52 19.06-33.13 32.13-67.41 44.78-103.22C550.43 626.96 559.05 587.29 578 554c3.1-5.45 12.25-19.14 20.07-13.07 7.83 6.06 9.5 15.46 10.93 24.07 1.35 8.16 1.46 16.07 2 24 1.24 18.14 0 36.81 0 55v6c0 14.63-1 29.13-1 44 0 9.23-.51 19.35 2 28 2.56 2.71 5.31-1.08 8-1-1-8.25 1.18-18.87 5.92-26.08 4.75-7.2 12.31-10.83 13.4-20.6 1.1-9.77 7.04-17.16 8.46-26.54 1.42-9.38 4.91-16.7 8.99-25.01 4.08-8.31 8.57-15.77 8.23-25.77-.34-10 7.17-19.68 3-30 5 1 7.86 6.33 12 9 8.51-11.06 8.77-25.73 8-39 5.13 1.12 6.98 7.41 11 10 2.03.07 11.51-10.17 11-12-2.98-5.03-13.22-4.57-18.07-7.93-4.86-3.35-10.48-6.38-13.7-12.3-3.22-5.92-6.49-12.82-7.23-19.77 14.03 6.16 28.69 13.55 39 25 1.13-6.13-1.78-13.46-8.08-16.92-6.31-3.46-9.57-6.45-13.69-13.31-4.12-6.86-3.14-12.95-5.23-21.77-2.09-8.83 1.4-13.96 7.75-6.75 6.35 7.21 8.57 7.57 13.02 13.98 4.45 6.41 8.22 10.83 7.02 18-1.21 7.17.19 15.88 2.99 21.99 2.79 6.11 6.75 18.16 8.22 8.78 1.47-9.38-.64-15.94 3.77-23.23 4.41-7.29 6.73-10.02 11.23-16.77 3.68 11.13 6.03 25.51 4 38 1.76-.05 3.07 1.53 5 1Z"/><path fill="none" fill-opacity="0" stroke="#C7E8DF" stroke-opacity=".98" stroke-width=".3" d="M132 423c-.1.48 0 1 0 1 4.9-1.74 10.6-18.22 15.25-20.75 4.65-2.54 16.22-19.69 17.72-12.22 1.51 7.47-13.21 12.23-16.22 19.72-3.01 7.49-10.69 13.43-14 22-3.32 8.56-5.62 20.9-4.75 31.25.87 10.35 15.27 12.22 14 22-10.06-1.63-16.78-11.01-21-19 1.36 9.66 10.93 18.61 21 20-.58 9.09 8.79 13.23 12 19-7.84 5.32-20.61 5.22-28.92 10.08-8.3 4.86-12.76 15.12-24.08 13.92 6.82 10.41 23.66 11.07 36 12-1.97 5.52 10 15.49 5.08 20.08-4.93 4.58-12.54 4.99-14.1 12.9-1.57 7.9-4.82 14.57-3.98 23.02 7.3-4.72 16.03-6.07 23.25-10.75 7.22-4.69 7.3-14.92 12.75-18.25 3.93 2.37 5.62 13.67 4 19 1.19-2.52 1.17-5.83 1-9-.19-3.53-1-6.43-1-10 1.93 2.44 2.07 6.25 4 9 3.64-2.79 3.19-11.03 10-7-.71 5.72-4.92 10.34-6 16 2.74.88 6.45 4.8 9 2-6.03-1.78-7.22-4.85-4.23-10.23 3-5.38 7.55-.61 11.23 1.23-3.07-2.13-5.69-5.9-9-8 5.5-4.77 7.45-11.05 8-18 6.79 1.74-3.01 10.37-.65 13.69 2.37 3.33 10.61-5.86 7.65-9.69 3.11 1.73 4.92 5.33 8 7-2.05-2.57-5.26-4.86-6-8 5.28-1.64 9.7-5.89 8-12 2.54-.98 5.43-2.94 8-1-.28 1.99-1.48 3.78-1 6 .3-1.41 3.94-6.41 2-10-2.95.13-5.02 2.88-8 3-2.12-3.35-2.09-5.74 1-8-1.53.57-3.26 1.02-5 1 2.83-4.6-4.45-6.07-5-11 5.37-2.65 13.19-.5 17-6 1.67.24.17 2.85 2 3 1.83-6.85 11.2-12.68 7-21-1.26 3.08-6.87 2.28-3-1-6.1 1.53-11.94 4.64-18 4 .99 1.58.33 4.74-1 6-2.59-.08-1.71-2.54-1-5-4.26 1.85-12.02-1.38-15.08 1.92-3.06 3.3-11.58 5.77-7.92.08-2.42 1.03-4.53.9-7 0 7.19-3.44-9.63-11.15-5-20 2.64 6.96 11.78 14.94 19 13-3.26-1.64-19.21-9.74-10-9-6.94-8.15-17.25-19.78-9-32 3.74 2.09 5.2 1.1 9-1 .68 2.3-2.75 5.36 0 7 .35-6.21 5.12-2.12 7.75-6.25 2.63-4.14 10.93 1.98 10.25-2.75 13.41 4.48 21.91 19.97 10 31 9.05-3.09 7.42-14.42 9-22 2.41.58 3.97.17 6 2 2.36 9.14 5.47 20.52-4 28 3.92 3.54 10.93 4.11 15.25-.75 4.31-4.86 6.74-12.09 5.75-18.25-.99-6.16-1.3-15.41-8-12-2.75-7.06-2.2-18.33-12-20 2.38-3.8 6.68-6.24 9-10-6.39 3.72-11.25 9.42-19 8-.9-8.29 5.03-14.2 10-20-3.6 2.93-8.18 6.31-9 11-1.67-.24-.17-2.85-2-3-.61 3.41-.84 6.71-2 10-9.61-.15-5.34-12.56-5.79-19.23-.44-6.67-3.9-16.75-7.98-22s-16.62-8.82-10.15-13.69c6.48-4.86 11.82-7.98 18.92-11.08-1.21 19.65 13.4 35.13 8 55 4.25-7.13 10.67-10.73 16.75-16.25 6.08-5.51 8.69-12.62 15.25-17.75-9.16 5.73-13.65 16.41-23 21 4.57-13.49 13.05-21.62 21.25-33.75 8.2-12.14 22.7-17.13 36.77-10.27 14.08 6.85 29.36-3.62 38.98-12.98-17.5-2.52-35.7-6.81-52 2 9.62-14.6 28.64-10.53 43-16-.83-.5-.93-2.18-1-3 4.82-.47 8.39-4.8 13-5-4.78-4.31 7.59-10.35 9-16-10.16-.86-24.61-.56-33.3 5.7-8.7 6.26-14.44 15.58-26.7 13.3 1.58-8.56 4.44-20.33 0-28-2.49 6.09-8.66 7.61-11.75 13.25s-8.75 6.45-10.32 13.68c-1.57 7.22-4.98 8.49-12.91 11.09-7.93 2.61-8.76-4.67-11.02-11.02-5.27 9.48-11.97 23.61-23.77 26.23-11.8 2.62-19.19 21.37-30.23 11.77 1.8 11.1-10.24 16.11-15.25 23.75-5.01 7.65-13.77 13.24-15.75 22.25m137-76c-6.38 7.56-17.13 13.32-25 20 4.26-10.1 13.3-20.32 25-20m-57 65c-3.46-6.6 2.23-11.18 4.93-17.07 2.69-5.9 5.67-9.85 7.05-16.95 1.37-7.11-4.35-14.55 3.1-18.9 7.44-4.35 13.05-2.45 10.92 5.92-2.13 8.37-2.67 11.1-7.25 16.75-4.57 5.65-6.12 8.61-10 14-3.89 5.39-4.81 10.92-8.75 16.25m-11-43c-8.81 6.63-19.83 10.27-27 19-2.66.48-3.32-3.52-6-3 3.24-4.75 10.69-8.96 15.7-12.3 5-3.35 13.86-11.32 17.3-3.7m-38 31c-2.11 16.17 5.11 32.08 19 40-3.41 9.4-13.05 5.39-19.74 10.26-6.7 4.86-6.31 15.34-9.26 21.74-1.93-1.74-.9-6-4-6 .23 4.56-3.63 7.6-4 12-17.89-4.8-16.33-30.5-9.23-43.23 7.1-12.73 13.88-27.71 27.23-34.77m19 120c-2.44 3.51-6.33 2.97-10 2 11.21 13.17-18.57 16.66-23 7 6.09.15 17.6 7.49 21.77-1.23 4.16-8.72-12.22-8.94-16.77-11.77 9.36-3.72 18.5 9.86 28 4m3 6c5.44 5.1 11.13 26-2 20 .59 5.17-2.33-1.12-4 3 .73-7.83-7.82-23.75 6-23m-23 23c-.94-.23-1.5.92-3.02.98-1.53.05-1.65-2.85-1.98-2.98-.9.01-2.31.41-4 1-.79-3.58-3.26-4.36-6-2-2.68-3.31.41-6.75 1-10 3.66 3.86 14.17-2.94 13 6 2.61-1.93 5.69.57 8 2-.18-3.14-4.3-4.58-4-8 4.13.15 4.28 5.81 8 7-1.51 4.19.25 9.48-3 13-3.19-3.03-10.48 2.44-12-5 1.44 2.36 6.83-.04 4-2Z"/><path fill="none" fill-opacity="0" stroke="#A9D7CB" stroke-opacity=".98" stroke-width=".3" d="M302 345c14-1.73 30.7 4.69 43 10 9.15 2.11 21.56 11.35 26 20 10.98 14.77 18.27 32.56 20 51 2.55 12.12 1.83 29.52-2 41-3.15 9.44-5.77 19.68-8.32 29.68-2.55 9.99-7.97 17.73-11.45 27.55-3.48 9.81-9.84 15.21-13.98 25.02-4.15 9.8-9.72 18.32-19.93 10.43-10.21-7.89-14.97-8.85-25.01-13.99-10.05-5.13-16.67-8.76-26.98-12.02-10.31-3.25-20.62-5.97-31.33-7.67-3.07.01-14.53 3.54-17 0-3.7-5.29 3.14-14.01 1.99-20.01-1.15-6 3.9-14.54 3.99-21.01.08-6.47 4.45-13.09 3.95-20.05-.51-6.97 4.24-11.69 8.82-16.18 4.58-4.48 6.99-9.29 9.03-14.97 2.03-5.69 7.34-9.66 10.22-14.78-6.3-.55-11.55 3.07-18 2-1.41-11.42 8.1-18.63 12-28-.11-2.26-4.03-4.74-6-7 5.13-10.63-7.45-13.64-11-4-.29.23-.79.7-1 1 1.41 5.43-3.56 7.91-7 9-1.6 1.07-3.53 2.08-5 3-6.56 5.13-9.17 12.24-15.25 17.75-6.08 5.52-12.5 9.12-16.75 16.25-.16.27-.94.65-1 1 1.83.15.33 2.76 2 3 .82-4.69 5.4-8.07 9-11 4.35-3.54 8.32-3.84 14-5 2.42-.49 5.9-1.7 9-1-1.55 4.65-1.03 12.62-7 14-2.17 1.25-4.89 2.78-7 4-2.32 3.76-6.62 6.2-9 10 9.8 1.67 9.25 12.94 12 20 6.7-3.41 7.01 5.84 8 12 .99 6.16-1.44 13.39-5.75 18.25-4.32 4.86-11.33 4.29-15.25.75 9.47-7.48 6.36-18.86 4-28-2.03-1.83-3.59-1.42-6-2-1.58 7.58.05 18.91-9 22 11.91-11.03 3.41-26.52-10-31 .68 4.73-7.62-1.39-10.25 2.75-2.63 4.13-7.4.04-7.75 6.25-2.75-1.64.68-4.7 0-7-3.8 2.1-5.26 3.09-9 1-8.25 12.22 2.06 23.85 9 32-9.21-.74 6.74 7.36 10 9-7.22 1.94-16.36-6.04-19-13-4.63 8.85 12.19 16.56 5 20 2.47.9 4.58 1.03 7 0-3.66 5.69 4.86 3.22 7.92-.08 3.06-3.3 10.82-.07 15.08-1.92-.71 2.46-1.59 4.92 1 5 1.33-1.26 1.99-4.42 1-6 6.06.64 11.9-2.47 18-4-3.87 3.28 1.74 4.08 3 1 4.2 8.32-5.17 14.15-7 21-2.21 8.28-3.17 7.74-9 13-3.09 2.26-3.12 4.65-1 8 2.98-.12 5.05-2.87 8-3 1.94 3.59-1.7 8.59-2 10-.43 8.93.08 19.14-3 27-.9-4.33-2.93-8.88-6-12-3.08-1.67-4.89-5.27-8-7 2.96 3.83-5.28 13.02-7.65 9.69-2.36-3.32 7.44-11.95.65-13.69-.55 6.95-2.5 13.23-8 18 3.31 2.1 5.93 5.87 9 8 6.75 3.38 13.99 5.32 21 8-3.9 10.02 9.27 23.03 12.92 10.92 3.66-12.1 1.12-20.39 5.08-31.92.08-3.94-.07-7.06 1-11 .92-8.04-.63-18.59 8-21 7.17-2 17.3-1.66 24 1 12.36 4.91 26.7 8.47 38.69 14.31 12 5.83 22.65 15.24 35.31 18.69.94.26 4.46.32 6 2-16.63 26.31-42.23 54.21-69 68-22.15 14.73-63.46 25.66-79-2 2.19-.76 3.32 1.3 5 2-3.66-3.66-7.74-7.15-11-11 .83-1.75 3.44-.66 5-1-4.21-.6-7.23-2.99-9-7-3.25-7.36-8.08-16.16-8-24 1.82.6 2.15 2.56 3 4 5.06 6.02 11.06 12.25 19 14 1.55-2.31 1.38-5.68 0-8 4.98 4.75 4.38-2.87 8-2 .66-4.19-4.61-5.68-6-9-5.33-2.81-11.27-4.31-17-6-2.55 2.8-6.26-1.12-9-2 1.08-5.66 5.29-10.28 6-16-6.81-4.03-6.36 4.21-10 7-.83.64-1.59 1.39-3 1 .17 3.17.19 6.48-1 9-1.41 2.97-5.22 5.2-8 7-.45.49-.6 1.57-1 2 3.27-2.34 7.15-3.97 10-7 .44 9.58 3.01 20.16-4 28 4.73-2.57 5.59 14.09 6 16 3.5 6.22-.04 12.33 1.01 18.99 1.05 6.67 4.47 10.57 6.01 16.99 1.55 6.41 4.96 13.54 8.05 5.09 3.1-8.44 3.32-9.89 4.93-18.07 11.23.3 14.14 11.1 20.75 18.25 6.62 7.14 15.82 10.66 24.25 14.75 2.35-9.46-4.92-18.27-8-27 38.94-2.05 72.82-23.07 102-48 6.61-6.61 12.91-13.94 20-20 7.07-6.44 10.74-18.59 21.31-12.31 10.56 6.28 21.27 1.48 31.69 7.31-31.7 29.49-23.82 91.55 19.99 101.01 43.82 9.46 85.17-21.4 89.01-65.01-.1-11.28-4.4-25.8-15-32 .69-1.56 3.88-4.04 5-2 13.77-3.62 39.52-16.74 42-33 .33-5.84-2.39-17.32-10-18 9.81 14.85-9.08 32.79-22 34-5.84 2.52-10.85 6-16.93 8.07-6.07 2.08-11.51 4.99-17.38 7.63-5.86 2.63-10.47 4.94-15.44 9.55-4.97 4.61-7.46 7.74-11.48 13.52-4.02 5.78-3.93 13.59-3.74 21.2.18 7.62 12.66 10.09 8.89 2.11-3.76-7.99-.26-11.7 2.08-19.08 3.32-10.44 12.93-11.22 22.7-18.3 9.76-7.09 21.09.22 22.3 11.3 2.17 7.76 2.06 14.28 0 22-.53 7.2-2.29 13.48-7 20-13.11 26.52-51.72 40.65-77 25-6.67-4.13-10.94-12.19-12-18-2.64-7.71-3.83-19.99-1.98-27.98 1.85-7.98 3.6-16.93 7.23-23.77 3.62-6.85 9.31-11.34 13.5-17.5 4.2-6.16 13.19-8.89 18.51-12.49 5.31-3.6 23.13 4.13 24.4-5.58 1.27-9.71-14.88-3.52-19.91-8.43-5.02-4.92-9.38-14.71-8.77-22.23.61-7.51-.41-18.42 4.25-24.79 4.66-6.37 7.25-14.18 13.69-18.31 6.44-4.13 15.45-9.27 22.86-7.7 7.41 1.58 15.54 5.81 16.22 14.78.68 8.97-1.26 14.54-8.75 22.25-7.49 7.71 6.36 9.08 9.83-.17 3.46-9.26 7.71-15.13 5.24-24.4-2.47-9.27-6.24-13.09-14.1-16.9-7.86-3.82-18.71-3.49-27-1.56-8.29 1.94-15 5.09-21.47 10.53-6.47 5.44-9.39 10.13-13.83 17.17-4.43 7.05-5.29 16.49-5.92 25.08-.63 8.59 2.81 16.68 8 23 3.24 3.37 8.32 6.01 10 10-16.2 5.74-34.24 15.44-52 8-5.53-1.86-12.13-3.13-18-5 9.76-20.01 21.94-35.64 31.03-56.98 9.08-21.33 15.67-47.04 16.97-71.02-.2-4.63-.13-11.45 0-16-.41-5.99-1.6-12.24-3-18-5.18-13.36-11.06-27.57-20.75-39.25S368.17 354.15 356 347c-12.5-5.33-28.12-10.38-42-10-4.61.2-8.18 4.53-13 5 .07.82.17 2.5 1 3M179 480c.26-3.27-2.83-7.77 0-11 1.37 4.65 5.51 13.43 12 10-.5-4.99-.19-9.98-6-12 3.35-.92 5.21 2.09 8 3 .05-2.13 2.13-2.82 2-5 3.01 1.48 4.6 4.63 6 7 3.02-3.17.63-6.43 0-10 4.5 2.55 5.85 10.15 5 15-.85 4.85-9.53.08-13 4 6.19 4.76-3.07 1.92-3 7-5.87.72-10.88.54-16-1 3.79-3.43-2.35-9.88-1-15-5.65 5.63-.33-6.05-2-9 3.76 1.6-.39 8.98 5 8-.24 4.24-.04 8.36 2 12 1.39-.26.78-2.05 1-3m10-4c-5 2.85-7.16-2.5-6-7 3.63-.52 4.8 4.43 6 7m-11 147c.32-1 1.08-3.22 2-4-.43 5.3.22 10.26 2 15-10.56-.38-9.56 15.04-8 23-8.48-8.43 1.86-23.06 4-33-2.6 4.91-5.68-3.3-5.93-7.07-.24-3.78-2.03-11.18.93-14.93 3.67 5.94 5.37 13.56 5 21m5 3c4.86 8.67 10.79 16.56 16 25-11.28-1.77-17.25-15.49-16-25m35 30c-.23 4.4-3.06 6.07-2 10-4.55 5.94-8.39-5.89-12 0-2.23-5.84-3.26-11.97-5-18 6.52 1.81 12.68 5.43 19 8Z"/><path fill="none" fill-opacity="0" stroke-opacity="0" stroke-width=".3" d="M237 395c1.47-.92 3.4-1.93 5-3 3.52-2.34 4.7-5.73 7-9 .21-.3.71-.77 1-1 3.69-10.34 15-9.4 13 3 3.76-1.25 7.06-2.37 11-1-2.5 2.96-5.11 5.97-7 9-3.9 9.37-13.41 16.58-12 28 6.45 1.07 11.7-2.55 18-2-2.88 5.12-8.19 9.09-10.22 14.78-2.04 5.68-4.45 10.49-9.03 14.97-4.58 4.49-9.33 9.21-8.82 16.18.5 6.96-3.87 13.58-3.95 20.05-.09 6.47-5.14 15.01-3.99 21.01 1.15 6-5.69 14.72-1.99 20.01 5.82-.98 11.16-.93 17 0 10.71 1.7 21.02 4.42 31.33 7.67 10.31 3.26 16.93 6.89 26.98 12.02 10.04 5.14 14.8 6.1 25.01 13.99 10.21 7.89 15.78-.63 19.93-10.43 4.14-9.81 10.5-15.21 13.98-25.02 3.48-9.82 8.9-17.56 11.45-27.55 2.55-10 5.17-20.24 8.32-29.68 2.41-12.47 3.22-28.02 2-41-1.73-18.44-9.02-36.23-20-51-5.95-8-16.86-16.05-26-20-12.3-5.31-29-11.73-43-10-14.36 5.47-33.38 1.4-43 16 16.3-8.81 34.5-4.52 52-2-9.62 9.36-24.9 19.83-38.98 12.98-14.07-6.86-28.57-1.87-36.77 10.27-8.2 12.13-16.68 20.26-21.25 33.75 9.35-4.59 13.84-15.27 23-21Zm32-48c-11.7-.32-20.74 9.9-25 20 7.87-6.68 18.62-12.44 25-20Z"/><path fill="none" fill-opacity="0" stroke="#DBF0EC" stroke-opacity=".82" stroke-width=".3" d="M412 412c-7.44-30.49-27.25-52.74-56-65 12.17 7.15 25.56 14.07 35.25 25.75 9.69 11.68 15.57 25.89 20.75 39.25Z"/><path fill="none" fill-opacity="0" stroke="#DAF1ED" stroke-opacity=".84" stroke-width=".3" d="M345 355c9.14 3.95 20.05 12 26 20-4.44-8.65-16.85-17.89-26-20Z"/><path fill="none" fill-opacity="0" stroke-opacity="0" stroke-width=".3" d="M212 412c3.94-5.33 4.86-10.86 8.75-16.25 3.88-5.39 5.43-8.35 10-14 4.58-5.65 5.12-8.38 7.25-16.75s-3.48-10.27-10.92-5.92c-7.45 4.35-1.73 11.79-3.1 18.9-1.38 7.1-4.36 11.05-7.05 16.95-2.7 5.89-8.39 10.47-4.93 17.07Z"/><path fill="none" fill-opacity="0" stroke="#9CCCC0" stroke-width=".3" d="M201 369c-3.44-7.62-12.3.35-17.3 3.7-5.01 3.34-12.46 7.55-15.7 12.3 2.68-.52 3.34 3.48 6 3 7.17-8.73 18.19-12.37 27-19Z"/><path fill="none" fill-opacity="0" stroke-opacity="0" stroke-width=".3" d="M204 430c.06-.35.84-.73 1-1 5.4-19.87-9.21-35.35-8-55-7.1 3.1-12.44 6.22-18.92 11.08-6.47 4.87 6.07 8.44 10.15 13.69s7.54 15.33 7.98 22c.45 6.67-3.82 19.08 5.79 19.23 1.16-3.29 1.39-6.59 2-10Z"/><path fill="none" fill-opacity="0" stroke="#DAEDE9" stroke-opacity=".92" stroke-width=".3" d="M250 382c3.55-9.64 16.13-6.63 11 4 1.97 2.26 5.89 4.74 6 7 1.89-3.03 4.5-6.04 7-9-3.94-1.37-7.24-.25-11 1 2-12.4-9.31-13.34-13-3Z"/><path fill="none" fill-opacity="0" stroke="#DFF7F1" stroke-opacity=".83" stroke-width=".3" d="M242 392c3.44-1.09 8.41-3.57 7-9-2.3 3.27-3.48 6.66-7 9Z"/><path fill="none" fill-opacity="0" stroke="#8CC2B5" stroke-width=".3" d="M132 424c-.25 1.89-1.27 3.25-2 5-4.93 11.86-7 21.53-7 35 0 .99-.07 2.01 0 3 4.22 7.99 10.94 17.37 21 19 1.27-9.78-13.13-11.65-14-22-.87-10.35 1.43-22.69 4.75-31.25 3.31-8.57 10.99-14.51 14-22s17.73-12.25 16.22-19.72c-1.5-7.47-13.07 9.68-17.72 12.22-4.65 2.53-10.35 19.01-15.25 20.75Z"/><path fill="none" fill-opacity="0" stroke-opacity="0" stroke-width=".3" d="M163 400c-13.35 7.06-20.13 22.04-27.23 34.77-7.1 12.73-8.66 38.43 9.23 43.23.37-4.4 4.23-7.44 4-12 3.1 0 2.07 4.26 4 6 2.95-6.4 2.56-16.88 9.26-21.74 6.69-4.87 16.33-.86 19.74-10.26-13.89-7.92-21.11-23.83-19-40Z"/><path fill="none" fill-opacity="0" stroke="#DFF9F5" stroke-opacity=".89" stroke-width=".3" d="M229 417c8.01.29 6.93 8.91 2 13 5.97-1.38 5.45-9.35 7-14-3.1-.7-6.58.51-9 1Z"/><path fill="none" fill-opacity="0" stroke-opacity="0" stroke-width=".3" d="M215 422c-4.97 5.8-10.9 11.71-10 20 7.75 1.42 12.61-4.28 19-8 2.11-1.22 4.83-2.75 7-4 4.93-4.09 6.01-12.71-2-13-5.68 1.16-9.65 1.46-14 5Z"/><path fill="none" fill-opacity="0" stroke="#E5FAF8" stroke-opacity=".63" stroke-width=".3" d="M129 429c.12-.22 1 0 1 0 .73-1.75 1.75-3.11 2-5 0 0-.1-.52 0-1-.98 1.8-2.08 3.99-3 6Z"/><path fill="none" fill-opacity="0" stroke="#D6ECE7" stroke-opacity=".9" stroke-width=".3" d="M389 467c3.83-11.48 4.55-28.88 2-41 1.22 12.98.41 28.53-2 41Z"/><path fill="none" fill-opacity="0" stroke="#DFF9F4" stroke-opacity=".87" stroke-width=".3" d="M123 464c0-13.47 2.07-23.14 7-35 0 0-.88-.22-1 0-5.26 11.5-8.8 22.23-6 35Z"/><path fill="none" fill-opacity="0" stroke="#E6F7F3" stroke-opacity=".98" stroke-width=".3" d="M415 446c.28-5.2.35-10.81 0-16-.13 4.55-.2 11.37 0 16Z"/><path fill="none" fill-opacity="0" stroke="#C2E5DB" stroke-opacity=".98" stroke-width=".3" d="M710 535c1.51 2.54-8.88 12.68-11 12-4.02-2.59-5.87-8.88-11-10 .77 13.27.51 27.94-8 39-4.14-2.67-7-8-12-9 4.17 10.32-3.34 20-3 30 .34 10-4.15 17.46-8.23 25.77-4.08 8.31-7.57 15.63-8.99 25.01s-7.36 16.77-8.46 26.54c-1.09 9.77-8.65 13.4-13.4 20.6-4.74 7.21-6.92 17.83-5.92 26.08-2.69-.08-5.44 3.71-8 1 .68 2.35 1.83 1.47 1 4 1.69-.95 6.73 1.67 8 2 8.4 2.21 6.3 9.13-1 12 4.21-.58 8.15.18 8-7 5.15 5.5 11.6 14.33 21 15-1.3 4.69-7.94 5.75-11 9 5.36-1.88 9.68-6.09 15-8-1.31 1.73-2.62 3.61-4 5-.23.36 0 1 0 1 1.09 1.71-3.92 5.62-6.25 7.75s-5.9 6.01-6.75 9.25c7.42-6.78 13.43-16.51 22-22 .34 2.61-.67 4.9-2 7-.23.36 0 1 0 1 1.94-2.2 3.72-5.17 6-7 5.41 10.29 9.33 22 6 34 5.26-9.83 1.16-21.39-3.69-30.31-4.86-8.91 8.07-16.46 13.69-20.69-8.09 17.32 8.25 28.74 15 42 6.76-4.66 6.32-18.72 16.31-12.3 9.98 6.41 15.82 4.87 25.69 6.3-6.07-8.63-10.81-16.72-12.08-27.92-1.26-11.2-13.01-13.48-20.92-18.08-6.32-3.68-9.98-7.03-3-8 3.59-.65 11.96-3.59 7-8 8.09 1.76 14.12.44 20.92-4.08 6.8-4.53 6.29-11.3 7.08-16.92-2.85-1.93-6.55.26-9 2 1.29-2.98 3.78-7.13 7-8 5.96-11.78 3.59-27.65-10-33-.59-5.38-1.42-16.28 6.78-12.78 8.19 3.5 12.7.92 19.54-.9 6.84-1.81 10.5-4.71 14.43-9.57 3.94-4.86 8.27-7.91 10.48-13.52 2.21-5.61 8.2-8.46 9.77-14.23-14.72 1.67-32.57 1.06-44.77 9.23-12.2 8.17-15.24 20.85-25.23 25.77 5.13-20.01 12.34-33.35 30.75-43.25 18.41-9.9 14.55-39.05 17.25-55.75-10.05 6.75-15.7 13.69-24.25 22.75S728.93 580.6 726 592c-3.95-5.59-.11-13.65-1-21s.65-14 1.01-20.99c.35-6.99 5.05-9.39 8.24-15.76 3.19-6.37 12.35.49 16.75.75.14.01.66-1 1-1-2.47-3.72-10.92-3.75-15-4-.18-5.27 4.2-7.06 9-6-.2-.09 0-1 0-1-1.93.53-3.24-1.05-5-1 2.03-12.49-.32-26.87-4-38-4.5 6.75-6.82 9.48-11.23 16.77-4.41 7.29-2.3 13.85-3.77 23.23-1.47 9.38-5.43-2.67-8.22-8.78-2.8-6.11-4.2-14.82-2.99-21.99 1.2-7.17-2.57-11.59-7.02-18-4.45-6.41-6.67-6.77-13.02-13.98-6.35-7.21-9.84-2.08-7.75 6.75 2.09 8.82 1.11 14.91 5.23 21.77 4.12 6.86 7.38 9.85 13.69 13.31 6.3 3.46 9.21 10.79 8.08 16.92-10.31-11.45-24.97-18.84-39-25 .74 6.95 4.01 13.85 7.23 19.77 3.22 5.92 8.84 8.95 13.7 12.3 4.85 3.36 15.09 2.9 18.07 7.93m6-2c-1.65-2.53-3.4-5.04-4-9 2.8 1.97 4.64 5.37 4 9m-1 2c1.18 1.95 2.98 3.58 3 6-5.04 2.95-10.52 7.81-13 13-11.52-4.56 4.98-15.09 10-19m7 11c.87-2.76-3-6.59 1-8 1.96 1.86 1.2 6.52-1 8m-4-3c3.63 17.9 5.19 39.63 0 57-4.02-7.4-2.41-17.21-3.78-25.22-1.36-8.01-7.21-13.23-9.22-20.78 4.87-2.88 7.68-9.3 13-11m-16 87c2.71-9.41-2.61-20-3.93-28.07-1.31-8.07-12.21-13.63-10.28-21.16 1.93-7.53 11.47 5.32 16.46 8.98 4.98 3.67 12.67 14.94 10.75 22.25-1.92 7.32-2.09 21.97-13 18m15-17c-1.76-2.31-1.73-7.43 1-9 2.18 2.22.24 6.89-1 9m-28 7c3.61-2.59 7.4 2.24 6 6-5.78.04-9.67-5.32-9-11 1.92.85 2.78 3.05 3 5m-28 19c.52-7.64 4.86-14.17 8-21 2.46 1.15 10.22 9.66 7.07 13.08-3.15 3.41-12.21 2.66-15.07 7.92m22 6c-1.33 7.65-9 14.72-5 23 2.26-5.24.72-11.96 5.25-16.75 4.54-4.78 11.54-1.52 16.5.34 4.95 1.86 9.46-2.64 13.02 3.64 3.56 6.28 2.22 9.12.23 15.77 4.86-2.34 10.04-1.54 13-6-.04 10.74-5.6 17.25-14 21-.26-3.84-5.68.17-9-1-1.51 9.43-12.02 4.3-18 3-.22 1.31-1.75 2.98-2 5-7.14-2.57-10.95-8.69-17-13 .51-13.9-2.45-33.79 17-35m-25 28c-8.54-8.64-6.11 6.29-11 8 .4-7.66 4.08-14.45 5-22 2.87 2.7 3.5 9.71 6 14m-5 19c-.71 8.65 14.51 9.1 15 20 .48 10.9-1.69 20.74-13 20 5.72-2.25 12.98-8.81 10-15-3.08 2.7-5.6 13.5-10 7-.64 3.33-5.6 5.77-4 9-5.14 2.26-11.29.84-15-3 2.45-1.16 5.48 1.99 7 0-1.26-2.14-2.38-3.64 0-5-14.63-6.57-5.37-33.8 10-22-1.59-7.09-9.84-3.9-15-4 1.22-3.99 5.49-5.72 5-10 3.68-.02 6.74 1.86 10 3m60-3c-1.5 5.02-6.55 6.82-11 8 .73-4.72 6.64-7.25 11-8m-16 49c-1.36 3.68-3.11 5.56-3 10-5.85-3.3-6.85-12.55-13-15-.79-5.15 2.09-9.27 3-14 3.37-.58.75 4.72 4 5v-10c5.84.12 3.58 7.13 9.7 8.3 6.11 1.17 2.97 9.16 2.65 12.39-.31 3.24 10.62 6.92 6.86 10.54-3.75 3.62-6.69-8.34-10.21-7.23Z"/><path fill="none" fill-opacity="0" stroke="#68BFAD" stroke-width=".3" d="M193 470c4.24 4.91.38 9.69-2 14-4.85.35-8.97-2.43-12-4-.22.95.39 2.74-1 3-2.04-3.64-2.24-7.76-2-12-5.39.98-1.24-6.4-5-8 1.67 2.95-3.65 14.63 2 9-1.35 5.12 4.79 11.57 1 15 5.12 1.54 10.13 1.72 16 1-.07-5.08 9.19-2.24 3-7 3.47-3.92 12.15.85 13-4 .85-4.85-.5-12.45-5-15 .63 3.57 3.02 6.83 0 10-1.4-2.37-2.99-5.52-6-7 .13 2.18-1.95 2.87-2 5Z"/><path fill="none" fill-opacity="0" stroke="#3B9A89" stroke-width=".3" d="M179 480c3.03 1.57 7.15 4.35 12 4 2.38-4.31 6.24-9.09 2-14-2.79-.91-4.65-3.92-8-3 5.81 2.02 5.5 7.01 6 12-6.49 3.43-10.63-5.35-12-10-2.83 3.23.26 7.73 0 11Z"/><path fill="none" fill-opacity="0" stroke="#399585" stroke-width=".3" d="M189 476c-1.2-2.57-2.37-7.52-6-7-1.16 4.5 1 9.85 6 7Z"/><path fill="none" fill-opacity="0" stroke="#9AD1C4" stroke-width=".3" d="M182 520c-9.5 5.86-18.64-7.72-28-4 4.55 2.83 20.93 3.05 16.77 11.77-4.17 8.72-15.68 1.38-21.77 1.23 4.43 9.66 34.21 6.17 23-7 3.67.97 7.56 1.51 10-2Z"/><path fill="none" fill-opacity="0" stroke-opacity="0" stroke-width=".3" d="M208 535c5.83-5.26 6.79-4.72 9-13-1.83-.15-.33-2.76-2-3-3.81 5.5-11.63 3.35-17 6 .55 4.93 7.83 6.4 5 11 1.74.02 3.47-.43 5-1Z"/><path fill="none" fill-opacity="0" stroke="#D8F2ED" stroke-opacity=".84" stroke-width=".3" d="M746 524c2.21 1.07 10.45 2.58 11 6-1.69-5.61-6.17-5.68-11-7 0 0-.2.91 0 1Z"/><path fill="none" fill-opacity="0" stroke="#EBFCF7" stroke-opacity=".54" stroke-width=".3" d="M716 533c.64-3.63-1.2-7.03-4-9 .6 3.96 2.35 6.47 4 9Z"/><path fill="none" fill-opacity="0" stroke="#8EC2B6" stroke-width=".3" d="M752 534c2.88-.03 5.6-.24 5-4-.55-3.42-8.79-4.93-11-6-4.8-1.06-9.18.73-9 6 4.08.25 12.53.28 15 4Z"/><path fill="none" fill-opacity="0" stroke="#E7FEFB" stroke-opacity=".73" stroke-width=".3" d="M235 526c2.47 3.54 13.93.01 17 0-5.84-.93-11.18-.98-17 0Z"/><path fill="none" fill-opacity="0" stroke="#99D9C8" stroke-width=".3" d="M185 526c-13.82-.75-5.27 15.17-6 23 1.67-4.12 4.59 2.17 4-3 13.13 6 7.44-14.9 2-20Z"/><path fill="none" fill-opacity="0" stroke="#E4F9F6" stroke-opacity=".67" stroke-width=".3" d="M752 534c-.34 0-.86 1.01-1 1 5.14 2.06 7.07-1.43 6-5 .6 3.76-2.12 3.97-5 4Z"/><path fill="none" fill-opacity="0" stroke="#DDF6F2" stroke-opacity=".92" stroke-width=".3" d="M238 535c7.41-1.11 16.87-.35 24 1-6.7-2.66-16.83-3-24-1Z"/><path fill="none" fill-opacity="0" stroke-opacity="0" stroke-width=".3" d="M230 556c-.43 3.71-.38 7.28-1 11-3.96 11.53-1.42 19.82-5.08 31.92-3.65 12.11-16.82-.9-12.92-10.92-7.01-2.68-14.25-4.62-21-8-3.68-1.84-8.23-6.61-11.23-1.23-2.99 5.38-1.8 8.45 4.23 10.23 5.73 1.69 11.67 3.19 17 6 8.97 4.74 11.36 15.57 17 23-14.21 1.86-30.66-4.55-38-18-.85-1.44-1.18-3.4-3-4-.08 7.84 4.75 16.64 8 24 4.67 6.6 17.54 5.58 24 7 1 0 2-.03 3 0 14.37.49 22.12 11.65 27 24-1.57-.39-4.22.94-5-1-.3-.24-1 0-1 0-3.49-2.2-9.46-2.64-13-3-7.25.11-14.34-2.34-20-8-1.68-.7-2.81-2.76-5-2 15.54 27.66 56.85 16.73 79 2 8.88-5.91 17.89-12.07 26-19l11-11c10.47-12.25 23.63-23.12 29-38-.87-.95-2.68-.54-3-2-12.66-3.45-23.31-12.86-35.31-18.69-11.99-5.84-26.33-9.4-38.69-14.31-7.13-1.35-16.59-2.11-24-1-8.63 2.41-7.08 12.96-8 21Z"/><path fill="none" fill-opacity="0" stroke="#EBFFFC" stroke-opacity=".55" stroke-width=".3" d="M699 547c2.12.68 12.51-9.46 11-12 .51 1.83-8.97 12.07-11 12Z"/><path fill="none" fill-opacity="0" stroke="#91C6BA" stroke-width=".3" d="M715 535c-5.02 3.91-21.52 14.44-10 19 2.48-5.19 7.96-10.05 13-13-.02-2.42-1.82-4.05-3-6Z"/><path fill="none" fill-opacity="0" stroke="#89CBBD" stroke-width=".3" d="M157 547c3.13-.03 3.09.67 6-2 2.44 1.98 3.41 8.04-1 8 1.95-.92 2.34-5.86 0-4 2.83 1.96-2.56 4.36-4 2 1.52 7.44 8.81 1.97 12 5 3.25-3.52 1.49-8.81 3-13-3.72-1.19-3.87-6.85-8-7-.3 3.42 3.82 4.86 4 8-2.31-1.43-5.39-3.93-8-2 1.17-8.94-9.34-2.14-13-6-.59 3.25-3.68 6.69-1 10 2.74-2.36 5.21-1.58 6 2 1.69-.59 3.1-.99 4-1m3-9c-3.96.62-5.21 5.71-8 7-1.01-4.55 3.74-8.14 8-7Z"/><path fill="none" fill-opacity="0" stroke="#4C9D8D" stroke-width=".3" d="M160 538c-4.26-1.14-9.01 2.45-8 7 2.79-1.29 4.04-6.38 8-7Z"/><path fill="none" fill-opacity="0" stroke-opacity="0" stroke-width=".3" d="M722 546c2.2-1.48 2.96-6.14 1-8-4 1.41-.13 5.24-1 8Z"/><path fill="none" fill-opacity="0" stroke="#D7EEE9" stroke-opacity=".84" stroke-width=".3" d="M510 575c12.92-1.21 31.81-19.15 22-34 7.61.68 10.33 12.16 10 18 .86-7.56-1.15-19.91-11-19 8.08 17-7.2 29.05-21 35Z"/><path fill="none" fill-opacity="0" stroke="#D4EBE6" stroke-opacity=".88" stroke-width=".3" d="M578 554c3.82-4.89 8.41-12.02 15.01-12.99 6.59-.97 13.96 12.71 7.99 11.99 5.84 1.58 4.04 9.56 8 12-1.43-8.61-3.1-18.01-10.93-24.07-7.82-6.07-16.97 7.62-20.07 13.07Z"/><path fill="none" fill-opacity="0" stroke="#A8D6CA" stroke-opacity=".98" stroke-width=".3" d="M578 554c-18.95 33.29-27.57 72.96-40.22 108.78C525.13 698.59 512.06 732.87 493 766c-6.32 18.09-27.8 44.83-46 52-2.22 1.37-4.67 2.09-7 3-6.22 3.47-13.79 6.39-22 4-3.45-1-6.61-2.81-10-4-5.6-1.96-10.26-7.73-13-14-10.19-23.35-6.33-51.38 9-72 2.44-4.51 8.56-9.92 13-12 8.6-5.9 10-6.81 22-7 12-.19 4.41-10.33-4.93-7.93-9.33 2.4-13.81 3.61-20.99 8.01-7.18 4.4-8.93 8.01-14.33 13.67-5.4 5.67-7.96 10.87-10.97 18.03-3.01 7.16-4.94 15.16-5.79 23.21-.85 8.06-1.32 18.28 1.03 25.99 2.36 7.7 4.05 13.02 8.21 19.79 4.16 6.77 9.73 9.06 16.54 12.46 6.81 3.39 16.92 4.25 24.48 3.16 7.56-1.08 11.98-4.04 18.75-7.39 21.4-15.44 35.06-35.3 50-56 15.91-32.17 31.61-63.54 43.02-97.98 11.42-34.43 21.52-70.5 35.98-104.02 1.1-3.65 2.69-9.89 6-14 8.15 8.83 2.55 24.17 4 37 1.45 12.83-1.65 26.05-2 39-.35 12.95.39 27.75 0 41s1.13 28.51-1 41c.62 9.12 1.19 19.09 3 28 1.45 7.12 1.15 15.63 3 23-1 .11-2.73-.47-3 1 11.69-1.22 23.72 5.08 33 12-8.03 3.97-17.44 6.4-27 6-.29 2.49 1.64 4.39 1 7h-3c2.64.08 8.21-.56 11 1-6.23 3.24-10.41 8.68-15 14-2.01-4.67-7.68.69-11 2-2.1-5.09-2.66-14.41 4-17h-1c-13.64 1.62-26.05 12.29-32 24 8-.42 19.62.98 26.92-1.08 7.3-2.05 11.61-6.74 17.34-10.66 5.72-3.93 10.24 9.47 11.74 13.74 1.44 4.09.78 8.49 0 13 3.11.34 3.88-4.38 7-4 3.04 9.12 22.02 11.64 19-2-1.65-10.35.77-17 1-27-3.31 4.06-3.6 11.9-5 17-3.79-2.27-6.63 3.65-10 5 2.09-4.95 7.23-9.69 9.31-14.69 2.07-5.01 5.71-15.23-1.31-15.31-1.23-3.7 2.6-5.34 4-8-.74.78-2.11 1.46-3 2-.62-1.94 1.2-3.13 1-5-.01-1.26-2.12-.56-2-2 4.9-2.31 9.92-5.26 13-10-3.09 2.66-6.13 5.97-10 7-1.61-7.34 1.94-13.04 9-13 3.06-3.25 9.7-4.31 11-9-9.4-.67-15.85-9.5-21-15 .15 7.18-3.79 6.42-8 7-2.67 1.05-5.22 2.32-8 3 .06-2.12.23-4.22-1-6-3.1-12.92-2-29.11-2-43 0-14.91.66-30.13 2-44v-6c-1.7-17.51-.5-37.59 0-55-.54-7.93-.65-15.84-2-24-3.96-2.44-2.16-10.42-8-12 5.97.72-1.4-12.96-7.99-11.99-6.6.97-11.19 8.1-15.01 12.99m31 63c-3.87 5.44-1.13 13.25-7 16 1.86 2.32 2.37.64 5 1-.41 6.22-2.15 9.71-1 16-6.07 1.24-10.52.78-14.75-4.25-4.24-5.02 2.5-13.07-1.25-17.75 2.5.39 3.38 4.44 7 3-2-4.83 4.08-3.98 3-10 4.25 1.33 5.93-2.82 9-4m12 153c-6.87 1.51-8.76-7.41-7-12 7.42-.33 7.79 5.86 7 12m-3 18c-2.76-7.94 5.23-5.25 0 0Z"/><path fill="none" fill-opacity="0" stroke-opacity="0" stroke-width=".3" d="M204 565c3.07 3.12 5.1 7.67 6 12 3.08-7.86 2.57-18.07 3-27-.48-2.22.72-4.01 1-6-2.57-1.94-5.46.02-8 1 1.7 6.11-2.72 10.36-8 12 .74 3.14 3.95 5.43 6 8Zm514-22c-5.32 1.7-8.13 8.12-13 11 2.01 7.55 7.86 12.77 9.22 20.78 1.37 8.01-.24 17.82 3.78 25.22 5.19-17.37 3.63-39.1 0-57Z"/><path fill="none" fill-opacity="0" stroke="#5C9E91" stroke-width=".3" d="M157 547c.33.13.45 3.03 1.98 2.98 1.52-.06 2.08-1.21 3.02-.98 2.34-1.86 1.95 3.08 0 4 4.41.04 3.44-6.02 1-8-2.91 2.67-2.87 1.97-6 2Z"/><path fill="none" fill-opacity="0" stroke="#D6EFEA" stroke-opacity=".89" stroke-width=".3" d="M580 567c.93-3.74 3.26-9.28 8-9 .04 39.12 1.38 80.61-2 119 .03 2.85 1.14 7.38 1 11-.29 7.27-.56 14.81 0 23 2.13-12.49.61-27.75 1-41s-.35-28.05 0-41 3.45-26.17 2-39c-1.45-12.83 4.15-28.17-4-37-3.31 4.11-4.9 10.35-6 14Z"/><path fill="none" fill-opacity="0" stroke="#E3FAF7" stroke-opacity=".71" stroke-width=".3" d="M229 567c.62-3.72.57-7.29 1-11-1.07 3.94-.92 7.06-1 11Z"/><path fill="none" fill-opacity="0" stroke="#DAF3ED" stroke-opacity=".84" stroke-width=".3" d="M385 579c17.76 7.44 35.8-2.26 52-8-1.68-3.99-6.76-6.63-10-10 1.56 3.43 6.5 5.09 7 9-16.34 9.01-31.18 11.55-49 9Z"/><path fill="none" fill-opacity="0" stroke="#DDF7F2" stroke-opacity=".85" stroke-width=".3" d="M336 569c.32 1.46 2.13 1.05 3 2-5.37 14.88-18.53 25.75-29 38-3.37 3.94-7.11 7.67-11 11-8.11 6.93-17.12 13.09-26 19 26.77-13.79 52.37-41.69 69-68-1.54-1.68-5.06-1.74-6-2Z"/><path fill="none" fill-opacity="0" stroke="#7DA39B" stroke-width=".3" d="M167 579c1.41.39 2.17-.36 3-1-1.93-2.75-2.07-6.56-4-9 0 3.57.81 6.47 1 10Z"/><path fill="none" fill-opacity="0" stroke-opacity="0" stroke-width=".3" d="M702 630c10.91 3.97 11.08-10.68 13-18 1.92-7.31-5.77-18.58-10.75-22.25-4.99-3.66-14.53-16.51-16.46-8.98-1.93 7.53 8.97 13.09 10.28 21.16 1.32 8.07 6.64 18.66 3.93 28.07Z"/><path fill="none" fill-opacity="0" stroke="#D8EFEA" stroke-opacity=".99" stroke-width=".3" d="M611 644c0-18.19 1.24-36.86 0-55-.5 17.41-1.7 37.49 0 55Z"/><path fill="none" fill-opacity="0" stroke="#7BB5A8" stroke-width=".3" d="M157 597c-5.43 5.82-9.76 12.3-11 20-.03 1.33 0 2.67 0 4 0 6.38 1.06 14.69 7.25 9.25 6.18-5.45 5.95-6.1 9.75-12.25 7.01-7.84 4.44-18.42 4-28-2.85 3.03-6.73 4.66-10 7Z"/><path fill="none" fill-opacity="0" stroke="#DAF2ED" stroke-opacity=".87" stroke-width=".3" d="M510 626c.6-6.82-1.36-15.03-3.68-20.32-2.32-5.29-9.78-10.59-6.32-13.68-1.12-2.04-4.31.44-5 2 10.6 6.2 14.9 20.72 15 32Z"/><path fill="none" fill-opacity="0" stroke="#DBF3EF" stroke-opacity=".85" stroke-width=".3" d="M146 617c1.24-7.7 5.57-14.18 11-20 .4-.43.55-1.51 1-2-8.07 5.21-11.81 12.32-12 22Z"/><path fill="none" fill-opacity="0" stroke="#CBE2DC" stroke-opacity=".96" stroke-width=".3" d="M179 600c7.34 13.45 23.79 19.86 38 18-5.64-7.43-8.03-18.26-17-23 1.39 3.32 6.66 4.81 6 9-3.62-.87-3.02 6.75-8 2 1.38 2.32 1.55 5.69 0 8-7.94-1.75-13.94-7.98-19-14Z"/><path fill="none" fill-opacity="0" stroke="#ECFFFB" stroke-opacity=".5" stroke-width=".3" d="M328 615c7.09-6.06 13.39-13.39 20-20-7.09 6.06-13.39 13.39-20 20Z"/><path fill="none" fill-opacity="0" stroke="#D8F1EC" stroke-opacity=".84" stroke-width=".3" d="M456 618c8.26-14.97 38.61-29.91 45-7-1.21-11.08-12.54-18.39-22.3-11.3-9.77 7.08-19.38 7.86-22.7 18.3Z"/><path fill="none" fill-opacity="0" stroke-opacity="0" stroke-width=".3" d="M178 624c.02-.5 0-1 0-1 .37-7.44-1.33-15.06-5-21-2.96 3.75-1.17 11.15-.93 14.93.25 3.77 3.33 11.98 5.93 7.07Z"/><path fill="none" fill-opacity="0" stroke="#8AB6AA" stroke-width=".3" d="M717 613c1.24-2.11 3.18-6.78 1-9-2.73 1.57-2.76 6.69-1 9Z"/><path fill="none" fill-opacity="0" stroke="#EAFFFC" stroke-opacity=".69" stroke-width=".3" d="M299 620c3.89-3.33 7.63-7.06 11-11l-11 11Z"/><path fill="none" fill-opacity="0" stroke="#73BBA3" stroke-width=".3" d="M689 620c-.22-1.95-1.08-4.15-3-5-.67 5.68 3.22 11.04 9 11 1.4-3.76-2.39-8.59-6-6Z"/><path fill="none" fill-opacity="0" stroke="#D3EAE5" stroke-opacity=".92" stroke-width=".3" d="M163 618c-3.8 6.15-3.57 6.8-9.75 12.25-6.19 5.44-7.25-2.87-7.25-9.25-2.32 5.01-.34 12.17-1 18 5.29-4.58 11.71-9.82 17-15 1.23-1.21 1.56-3.19 3-4-.47 2.57.54 4.65 1 7 .69 2.55 1.87 4.59 3 7-.41-1.91-1.27-18.57-6-16Z"/><path fill="none" fill-opacity="0" stroke="#77C5AF" stroke-width=".3" d="M609 617c-3.07 1.18-4.75 5.33-9 4 1.08 6.02-5 5.17-3 10-3.62 1.44-4.5-2.61-7-3 3.75 4.68-2.99 12.73 1.25 17.75 4.23 5.03 8.68 5.49 14.75 4.25-1.15-6.29.59-9.78 1-16-2.63-.36-3.14 1.32-5-1 5.87-2.75 3.13-10.56 7-16Z"/><path fill="none" fill-opacity="0" stroke-opacity="0" stroke-width=".3" d="M661 639c2.86-5.26 11.92-4.51 15.07-7.92 3.15-3.42-4.61-11.93-7.07-13.08-3.14 6.83-7.48 13.36-8 21Z"/><path fill="none" fill-opacity="0" stroke="#7CADA2" stroke-width=".3" d="M178 623s.02.5 0 1c-2.14 9.94-12.48 24.57-4 33-1.56-7.96-2.56-23.38 8-23-1.78-4.74-2.43-9.7-2-15-.92.78-1.68 3-2 4Z"/><path fill="none" fill-opacity="0" stroke="#ECFDF8" stroke-opacity=".44" stroke-width=".3" d="M162 624c1.45.06 3.22 1.82 4 3-.46-2.35-1.47-4.43-1-7-1.44.81-1.77 2.79-3 4Z"/><path fill="none" fill-opacity="0" stroke="#DEF6F2" stroke-opacity=".82" stroke-width=".3" d="M193 627c4.78.68 10.17 0 15 0-6.46-1.42-19.33-.4-24-7 1.77 4.01 4.79 6.4 9 7Z"/><path fill="none" fill-opacity="0" stroke-opacity="0" stroke-width=".3" d="M183 626c-1.25 9.51 4.72 23.23 16 25-5.21-8.44-11.14-16.33-16-25Z"/><path fill="none" fill-opacity="0" stroke="#85B8AD" stroke-opacity=".99" stroke-width=".3" d="M199 639c5.66 5.66 12.75 8.11 20 8 4.43-.06 10.39-1.18 13 3 0 0 .7-.24 1 0 1.83-9.62-10.14-20.47-22-23-1-.03-2 0-3 0-4.83 0-10.22.68-15 0-1.56.34-4.17-.75-5 1 3.26 3.85 7.34 7.34 11 11m16-1c-2.1 2.46-5.72.15-8-1 2.09-2.4 5.32 1.18 8 1Z"/><path fill="none" fill-opacity="0" stroke="#D5ECE8" stroke-opacity=".88" stroke-width=".3" d="M233 650c.78 1.94 3.43.61 5 1-4.88-12.35-12.63-23.51-27-24 11.86 2.53 23.83 13.38 22 23Z"/><path fill="none" fill-opacity="0" stroke="#DEF7F2" stroke-opacity=".84" stroke-width=".3" d="M494 653c4.71-6.52 6.47-12.8 7-20-1.82 6.82-3.88 13.68-7 20Z"/><path fill="none" fill-opacity="0" stroke="#B4E4D9" stroke-width=".3" d="M215 638c-2.68.18-5.91-3.4-8-1 2.28 1.15 5.9 3.46 8 1Z"/><path fill="none" fill-opacity="0" stroke="#8DD3C2" stroke-width=".3" d="M683 645c-19.45 1.21-16.49 21.1-17 35 6.05 4.31 9.86 10.43 17 13 .25-2.02 1.78-3.69 2-5 5.98 1.3 16.49 6.43 18-3 3.32 1.17 8.74-2.84 9 1 8.4-3.75 13.96-10.26 14-21-2.96 4.46-8.14 3.66-13 6 1.99-6.65 3.33-9.49-.23-15.77-3.56-6.28-8.07-1.78-13.02-3.64-4.96-1.86-11.96-5.12-16.5-.34-4.53 4.79-2.99 11.51-5.25 16.75-4-8.28 3.67-15.35 5-23m11 15c1.73-.69 4.21.52 6 0-2.57 1.06-2.68 2.07-3 5 3.01-2.37 9.48-.17 5.74 3.74s-5.6-2.97-9.74.26c2.77 6.42 13.75 4.52 14-2 2.49 2.27-.36 6.81-3 8-1.09 1.18-3.81 1.98-2 4-5.5.15-9.58-3.34-14-6 .07 1.2 1.78 2.51 1 4-4.56-2.26-5.62-7.3-5-12 1.28-.53 1.86.97 3 1-1.28-4.66-4.49-13.27 3-15-1.19 4.02-4.53 8.3-1 12-.51-7.49 10.5-11.52 14-6-2.26-.88-10.36-.33-9 3Z"/><path fill="none" fill-opacity="0" stroke="#D1E7E4" stroke-width=".3" d="M232 650c-2.61-4.18-8.57-3.06-13-3 3.54.36 9.51.8 13 3Z"/><path fill="none" fill-opacity="0" stroke="#78B4A6" stroke-width=".3" d="M218 656c-6.32-2.57-12.48-6.19-19-8 1.74 6.03 2.77 12.16 5 18 3.61-5.89 7.45 5.94 12 0-1.06-3.93 1.77-5.6 2-10Z"/><path fill="none" fill-opacity="0" stroke="#DFF8F2" stroke-opacity=".93" stroke-width=".3" d="M609 694c0-.04 1 0 1 0 0-14.87 1-29.37 1-44-1.34 13.87-2 29.09-2 44Z"/><path fill="none" fill-opacity="0" stroke="#55B3A0" stroke-width=".3" d="M687 666c.68 2.46.86 4.57 1 7 4.42 2.66 8.5 6.15 14 6-1.81-2.02.91-2.82 2-4-5.21 2.46-10.94-.72-15-4 3.88-.88.26-7.41 5-11-1.36-3.33 6.74-3.88 9-3-3.5-5.52-14.51-1.49-14 6-3.53-3.7-.19-7.98 1-12-7.49 1.73-4.28 10.34-3 15Z"/><path fill="none" fill-opacity="0" stroke-opacity="0" stroke-width=".3" d="M658 673c-2.5-4.29-3.13-11.3-6-14-.92 7.55-4.6 14.34-5 22 4.89-1.71 2.46-16.64 11-8Z"/><path fill="none" fill-opacity="0" stroke="#DBF2EC" stroke-opacity=".92" stroke-width=".3" d="M417 678c-5.08-3.7-10.09-12.42-12-18 1.06 5.81 5.33 13.87 12 18Z"/><path fill="none" fill-opacity="0" stroke="#2C8A75" stroke-width=".3" d="M704 675c2.64-1.19 5.49-5.73 3-8-.25 6.52-11.23 8.42-14 2 4.14-3.23 6 3.65 9.74-.26s-2.73-6.11-5.74-3.74c.32-2.93.43-3.94 3-5-1.79.52-4.27-.69-6 0-4.74 3.59-1.12 10.12-5 11 4.06 3.28 9.79 6.46 15 4Z"/><path fill="none" fill-opacity="0" stroke="#C1F7EE" stroke-width=".3" d="M688 673c-.14-2.43-.32-4.54-1-7-1.14-.03-1.72-1.53-3-1-.62 4.7.44 9.74 5 12 .78-1.49-.93-2.8-1-4Z"/><path fill="none" fill-opacity="0" stroke="#ECFFFA" stroke-opacity=".44" stroke-width=".3" d="M587 688c.14-3.62-.97-8.15-1-11-.33 3.78.79 7.95 1 11Z"/><path fill="none" fill-opacity="0" stroke="#E8F7F2" stroke-opacity=".7" stroke-width=".3" d="M732 681c-3.22.87-5.71 5.02-7 8 2.45-1.74 6.15-3.93 9-2 .67-2.56 2.43-4.51 3-7-.81 3.02-7.59 1.65-5 1Z"/><path fill="none" fill-opacity="0" stroke="#91D3C3" stroke-width=".3" d="M653 692c-3.26-1.14-6.32-3.02-10-3 .49 4.28-3.78 6.01-5 10 5.16.1 13.41-3.09 15 4-15.37-11.8-24.63 15.43-10 22-2.38 1.36-1.26 2.86 0 5-1.52 1.99-4.55-1.16-7 0 3.71 3.84 9.86 5.26 15 3-1.6-3.23 3.36-5.67 4-9 4.4 6.5 6.92-4.3 10-7 2.98 6.19-4.28 12.75-10 15 11.31.74 13.48-9.1 13-20-.49-10.9-15.71-11.35-15-20m-4 24c-4.9 1.94-5.54 4.38-5-3 .21-2.82-.11-4.85-1-8 3.22-.63 4.74.86 9 0 .81 3.57-4.71-1.21-4 3 6.59 1.33 3.12 8.51 6 12-1.76 3.36-8.33 7.47-11 3 2.8-.56 10.72-7.38 6-7Z"/><path fill="none" fill-opacity="0" stroke="#8BC5B6" stroke-width=".3" d="M713 689c-4.36.75-10.27 3.28-11 8 4.45-1.18 9.5-2.98 11-8Z"/><path fill="none" fill-opacity="0" stroke="#E3FBF5" stroke-opacity=".81" stroke-width=".3" d="M611 737c-.05-2.02.81-5.64 1-8 .12-1.55.66-1.97 1-3 .83-2.53-.32-1.65-1-4-2.51-8.65-2-18.77-2-28 0 0-1-.04-1 0 0 13.89-1.1 30.08 2 43Z"/><path fill="none" fill-opacity="0" stroke="#5AB09E" stroke-width=".3" d="M644 713c4.22-4.22 4.48 1.62 5 3 4.72-.38-3.2 6.44-6 7 2.67 4.47 9.24.36 11-3-2.88-3.49.59-10.67-6-12-.71-4.21 4.81.57 4-3-4.26.86-5.78-.63-9 0 .89 3.15 1.21 5.18 1 8Z"/><path fill="none" fill-opacity="0" stroke="#41927F" stroke-width=".3" d="M644 713c-.54 7.38.1 4.94 5 3-.52-1.38-.78-7.22-5-3Z"/><path fill="none" fill-opacity="0" stroke="#7CB6AA" stroke-width=".3" d="M697 738c3.52-1.11 6.46 10.85 10.21 7.23 3.76-3.62-7.17-7.3-6.86-10.54.32-3.23 3.46-11.22-2.65-12.39-6.12-1.17-3.86-8.18-9.7-8.3v10c-3.25-.28-.63-5.58-4-5-.91 4.73-3.79 8.85-3 14 6.15 2.45 7.15 11.7 13 15-.11-4.44 1.64-6.32 3-10Z"/><path fill="none" fill-opacity="0" stroke="#ECFEFB" stroke-opacity=".45" stroke-width=".3" d="M702 724c-3.18-2.18-5.45-6.13-3-8-6.98.97-3.32 4.32 3 8Z"/><path fill="none" fill-opacity="0" stroke="#DFF3ED" stroke-opacity=".86" stroke-width=".3" d="M404 735c3.49-4.69 8.47-8.89 13-12-4.44 2.08-10.56 7.49-13 12Z"/><path fill="none" fill-opacity="0" stroke="#EDFCF7" stroke-opacity=".27" stroke-width=".3" d="M612 729c1.4-1.83 6.97-1.18 9-1-1.27-.33-6.31-2.95-8-2-.34 1.03-.88 1.45-1 3Z"/><path fill="none" fill-opacity="0" stroke-opacity="0" stroke-width=".3" d="M612 729c-.19 2.36-1.05 5.98-1 8 1.23 1.78 1.06 3.88 1 6 2.78-.68 5.33-1.95 8-3 7.3-2.87 9.4-9.79 1-12-2.03-.18-7.6-.83-9 1Z"/><path fill="none" fill-opacity="0" stroke="#DAF2ED" stroke-opacity=".83" stroke-width=".3" d="M578 776c-2.82-2.08-9.85.71-10-5 7.07-3.04 13.42-8.99 22-8 .27-1.47 2-.89 3-1-1.85-7.37-1.55-15.88-3-23-1.67 5.89.09 13.88 0 21-8.97 2.97-21.15 5.93-25 15 4.36.74 8.43 1 13 1Z"/><path fill="none" fill-opacity="0" stroke-opacity="0" stroke-width=".3" d="M638 757c-7.06-.04-10.61 5.66-9 13 3.87-1.03 6.91-4.34 10-7 3.15-2.72 6.96-5.99 10-9 1.38-1.39 2.69-3.27 4-5-5.32 1.91-9.64 6.12-15 8Z"/><path fill="none" fill-opacity="0" stroke="#7BB4A6" stroke-width=".3" d="M656 758c-4.87 12.38-7.63 25.32-1 38 2.19-4 8.23-.01 5 4 3.77-2.11 3.22-7.92 7-10 .64-1.86.72-3 1-5 3.33-12-.59-23.71-6-34-2.28 1.83-4.06 4.8-6 7Z"/><path fill="none" fill-opacity="0" stroke="#D0E5E2" stroke-opacity=".81" stroke-width=".3" d="M639 763c2.84-2.34 6.76-5.74 10-8 0 0-.23-.64 0-1-3.04 3.01-6.85 6.28-10 9Z"/><path fill="none" fill-opacity="0" stroke="#90B8AF" stroke-opacity=".99" stroke-width=".3" d="M639 763c-3.08 4.74-8.1 7.69-13 10-.12 1.44 1.99.74 2 2 1.27.8 2.62-1.78 4-1-.73 1.34-1.34 2.64-2 4-1.4 2.66-5.23 4.3-4 8 7.02.08 3.38 10.3 1.31 15.31-2.08 5-7.22 9.74-9.31 14.69 3.37-1.35 6.21-7.27 10-5 1.4-5.1 1.69-12.94 5-17v-1c0-4.23.06-8.46 1-12 .79-2.98 1.22-6.03 2-9 .85-3.24 4.42-7.12 6.75-9.25s7.34-6.04 6.25-7.75c-3.24 2.26-7.16 5.66-10 8Z"/><path fill="none" fill-opacity="0" stroke="#C6E1DB" stroke-opacity=".89" stroke-width=".3" d="M667 790c-3.78 2.08-3.23 7.89-7 10 3.23-4.01-2.81-8-5-4-6.63-12.68-3.87-25.62 1-38 0 0-.23-.64 0-1-13.37 14.17-3.35 34.23 1 50 4.1-4.7 7.92-10.97 10-17Z"/><path fill="none" fill-opacity="0" stroke-opacity="0" stroke-width=".3" d="M621 770c.79-6.14.42-12.33-7-12-1.76 4.59.13 13.51 7 12Z"/><path fill="none" fill-opacity="0" stroke="#7BB5A7" stroke-width=".3" d="M590 763c-8.58-.99-14.93 4.96-22 8 .15 5.71 7.18 2.92 10 5 0 0 .57-.17 1 0 5.75 2.26 10.64 4.57 17 5 9.56.4 18.97-2.03 27-6-9.28-6.92-21.31-13.22-33-12m12 10c-2.43 2.13-6.82.47-10 1 .88-4.58 6.91-.23 10-1Z"/><path fill="none" fill-opacity="0" stroke="#DFF9F5" stroke-opacity=".85" stroke-width=".3" d="M447 818c18.2-7.17 39.68-33.91 46-52-11.14 19.37-26.59 39.98-46 52Z"/><path fill="none" fill-opacity="0" stroke="#DFF9F5" stroke-opacity=".82" stroke-width=".3" d="M451 825c22.19-10.97 39.38-34.52 50-56-14.94 20.7-28.6 40.56-50 56Z"/><path fill="none" fill-opacity="0" stroke="#AFE2D6" stroke-width=".3" d="M602 773c-3.09.77-9.12-3.58-10 1 3.18-.53 7.57 1.13 10-1Z"/><path fill="none" fill-opacity="0" stroke-opacity="0" stroke-width=".3" d="M628 775c.2 1.87-1.62 3.06-1 5 .89-.54 2.26-1.22 3-2 .66-1.36 1.27-2.66 2-4-1.38-.78-2.73 1.8-4 1Z"/><path fill="none" fill-opacity="0" stroke="#DEF8F3" stroke-opacity=".85" stroke-width=".3" d="M582 788h1c3.66 0 7.34-.11 11 0h3c.64-2.61-1.29-4.51-1-7-6.36-.43-11.25-2.74-17-5 3.94 6.3 9.67 1.59 14.74 6.26 5.07 4.66-9.32 5.18-11.74 5.74Z"/><path fill="none" fill-opacity="0" stroke="#DEF6F2" stroke-opacity=".9" stroke-width=".3" d="M633 793c2.22-3.01.46-8.16 1-12-.94 3.54-1 7.77-1 12Z"/><path fill="none" fill-opacity="0" stroke-opacity="0" stroke-width=".3" d="M618 788c5.23-5.25-2.76-7.94 0 0Z"/><path fill="none" fill-opacity="0" stroke="#81B8AB" stroke-width=".3" d="M594 788c-3.66-.11-7.34 0-11 0-6.66 2.59-6.1 11.91-4 17 3.32-1.31 8.99-6.67 11-2 4.59-5.32 8.77-10.76 15-14-2.79-1.56-8.36-.92-11-1Z"/><path fill="none" fill-opacity="0" stroke="#DDF6F2" stroke-opacity=".83" stroke-width=".3" d="M408 821c-4.63-2.96-10-9.2-13-14 2.74 6.27 7.4 12.04 13 14Z"/><path fill="none" fill-opacity="0" stroke="#D9EFE9" stroke-opacity=".85" stroke-width=".3" d="M632 821c3.02 13.64-15.96 11.12-19 2-3.12-.38-3.89 4.34-7 4 .78-4.51 1.44-8.91 0-13 1.18 5.69-3.37 14.36 3.78 12.78 7.14-1.57 6.92 5.38 14.55 4.89 7.63-.49 8.73-4.02 7.67-10.67Z"/><path fill="none" fill-opacity="0" stroke="#DFFAF6" stroke-opacity=".85" stroke-width=".3" d="M418 825c8.21 2.39 15.78-.53 22-4-6.19 2.43-15.07 4.97-22 4Z"/><path fill="none" fill-opacity="0" stroke="None" d="M0 1184h896V0H0v1184m314-847c13.88-.38 29.5 4.67 42 10 28.75 12.26 48.56 34.51 56 65 1.4 5.76 2.59 12.01 3 18 .35 5.19.28 10.8 0 16-1.3 23.98-7.89 49.69-16.97 71.02-9.09 21.34-21.27 36.97-31.03 56.98 5.87 1.87 12.47 3.14 18 5 17.82 2.55 32.66.01 49-9-.5-3.91-5.44-5.57-7-9-5.19-6.32-8.63-14.41-8-23 .63-8.59 1.49-18.03 5.92-25.08 4.44-7.04 7.36-11.73 13.83-17.17 6.47-5.44 13.18-8.59 21.47-10.53 8.29-1.93 19.14-2.26 27 1.56 7.86 3.81 11.63 7.63 14.1 16.9 2.47 9.27-1.78 15.14-5.24 24.4-3.47 9.25-17.32 7.88-9.83.17s9.43-13.28 8.75-22.25c-.68-8.97-8.81-13.2-16.22-14.78-7.41-1.57-16.42 3.57-22.86 7.7-6.44 4.13-9.03 11.94-13.69 18.31-4.66 6.37-3.64 17.28-4.25 24.79-.61 7.52 3.75 17.31 8.77 22.23 5.03 4.91 21.18-1.28 19.91 8.43-1.27 9.71-19.09 1.98-24.4 5.58-5.32 3.6-14.31 6.33-18.51 12.49-4.19 6.16-9.88 10.65-13.5 17.5-3.63 6.84-5.38 15.79-7.23 23.77-1.85 7.99-.66 20.27 1.98 27.98 1.91 5.58 6.92 14.3 12 18 25.28 15.65 63.89 1.52 77-25 3.12-6.32 5.18-13.18 7-20 2.06-7.72 2.17-14.24 0-22-6.39-22.91-36.74-7.97-45 7-2.34 7.38-5.84 11.09-2.08 19.08 3.77 7.98-8.71 5.51-8.89-2.11-.19-7.61-.28-15.42 3.74-21.2 4.02-5.78 6.51-8.91 11.48-13.52 4.97-4.61 9.58-6.92 15.44-9.55 5.87-2.64 11.31-5.55 17.38-7.63 6.08-2.07 11.09-5.55 16.93-8.07 13.8-5.95 29.08-18 21-35 9.85-.91 11.86 11.44 11 19-2.48 16.26-28.23 29.38-42 33-3.46 3.09 4 8.39 6.32 13.68 2.32 5.29 4.28 13.5 3.68 20.32-3.84 43.61-45.19 74.47-89.01 65.01C377.18 681.55 369.3 619.49 401 590c-10.42-5.83-21.13-1.03-31.69-7.31-10.57-6.28-14.24 5.87-21.31 12.31-6.61 6.61-12.91 13.94-20 20-29.18 24.93-63.06 45.95-102 48 3.08 8.73 10.35 17.54 8 27-8.43-4.09-17.63-7.61-24.25-14.75-6.61-7.15-9.52-17.95-20.75-18.25-1.61 8.18-1.83 9.63-4.93 18.07-3.09 8.45-6.5 1.32-8.05-5.09-1.54-6.42-4.96-10.32-6.01-16.99-1.05-6.66 2.49-12.77-1.01-18.99-1.13-2.41-2.31-4.45-3-7-.78-1.18-2.55-2.94-4-3-5.29 5.18-11.71 10.42-17 15 .66-5.83-1.32-12.99 1-18 0-1.33-.03-2.67 0-4 .19-9.68 3.93-16.79 12-22 2.78-1.8 6.59-4.03 8-7 1.62-5.33-.07-16.63-4-19-5.45 3.33-5.53 13.56-12.75 18.25-7.22 4.68-15.95 6.03-23.25 10.75-.84-8.45 2.41-15.12 3.98-23.02 1.56-7.91 9.17-8.32 14.1-12.9 4.92-4.59-7.05-14.56-5.08-20.08-12.34-.93-29.18-1.59-36-12 11.32 1.2 15.78-9.06 24.08-13.92 8.31-4.86 21.08-4.76 28.92-10.08-3.21-5.77-12.58-9.91-12-19-10.07-1.39-19.64-10.34-21-20-.07-.99 0-2.01 0-3-2.8-12.77.74-23.5 6-35 .92-2.01 2.02-4.2 3-6 1.98-9.01 10.74-14.6 15.75-22.25 5.01-7.64 17.05-12.65 15.25-23.75 11.04 9.6 18.43-9.15 30.23-11.77 11.8-2.62 18.5-16.75 23.77-26.23 2.26 6.35 3.09 13.63 11.02 11.02 7.93-2.6 11.34-3.87 12.91-11.09 1.57-7.23 7.23-8.04 10.32-13.68 3.09-5.64 9.26-7.16 11.75-13.25 4.44 7.67 1.58 19.44 0 28 12.26 2.28 18-7.04 26.7-13.3 8.69-6.26 23.14-6.56 33.3-5.7-1.41 5.65-13.78 11.69-9 16m432 186c4.83 1.32 9.31 1.39 11 7 1.07 3.57-.86 7.06-6 5-4.4-.26-13.56-7.12-16.75-.75-3.19 6.37-7.89 8.77-8.24 15.76-.36 6.99-1.9 13.64-1.01 20.99.89 7.35-2.95 15.41 1 21 2.93-11.4 2.2-27.19 10.75-36.25 8.55-9.06 14.2-16 24.25-22.75-2.7 16.7 1.16 45.85-17.25 55.75-18.41 9.9-25.62 23.24-30.75 43.25 9.99-4.92 13.03-17.6 25.23-25.77 12.2-8.17 30.05-7.56 44.77-9.23-1.57 5.77-7.56 8.62-9.77 14.23-2.21 5.61-6.54 8.66-10.48 13.52-3.93 4.86-7.59 7.76-14.43 9.57-6.84 1.82-11.35 4.4-19.54.9-8.2-3.5-7.37 7.4-6.78 12.78 13.59 5.35 15.96 21.22 10 33-2.59.65 4.19 2.02 5-1-.57 2.49-2.33 4.44-3 7-.79 5.62-.28 12.39-7.08 16.92-6.8 4.52-12.83 5.84-20.92 4.08 4.96 4.41-3.41 7.35-7 8-2.45 1.87-.18 5.82 3 8 7.91 4.6 19.66 6.88 20.92 18.08 1.27 11.2 6.01 19.29 12.08 27.92-9.87-1.43-15.71.11-25.69-6.3-9.99-6.42-9.55 7.64-16.31 12.3-6.75-13.26-23.09-24.68-15-42-5.62 4.23-18.55 11.78-13.69 20.69 4.85 8.92 8.95 20.48 3.69 30.31-.28 2-.36 3.14-1 5-2.08 6.03-5.9 12.3-10 17-4.35-15.77-14.37-35.83-1-50 1.33-2.1 2.34-4.39 2-7-8.57 5.49-14.58 15.22-22 22-.78 2.97-1.21 6.02-2 9-.54 3.84 1.22 8.99-1 12v1c-.23 10-2.65 16.65-1 27 1.06 6.65-.04 10.18-7.67 10.67-7.63.49-7.41-6.46-14.55-4.89-7.15 1.58-2.6-7.09-3.78-12.78-1.5-4.27-6.02-17.67-11.74-13.74-5.73 3.92-10.04 8.61-17.34 10.66-7.3 2.06-18.92.66-26.92 1.08 5.95-11.71 18.36-22.38 32-24 2.42-.56 16.81-1.08 11.74-5.74-5.07-4.67-10.8.04-14.74-6.26-.43-.17-1 0-1 0-4.57 0-8.64-.26-13-1 3.85-9.07 16.03-12.03 25-15 .09-7.12-1.67-15.11 0-21-1.81-8.91-2.38-18.88-3-28-.56-8.19-.29-15.73 0-23-.21-3.05-1.33-7.22-1-11 3.38-38.39 2.04-79.88 2-119-4.74-.28-7.07 5.26-8 9-14.46 33.52-24.56 69.59-35.98 104.02-11.41 34.44-27.11 65.81-43.02 97.98-10.62 21.48-27.81 45.03-50 56-6.77 3.35-11.19 6.31-18.75 7.39-7.56 1.09-17.67.23-24.48-3.16-6.81-3.4-12.38-5.69-16.54-12.46-4.16-6.77-5.85-12.09-8.21-19.79-2.35-7.71-1.88-17.93-1.03-25.99.85-8.05 2.78-16.05 5.79-23.21 3.01-7.16 5.57-12.36 10.97-18.03 5.4-5.66 7.15-9.27 14.33-13.67s11.66-5.61 20.99-8.01c9.34-2.4 16.93 7.74 4.93 7.93-12 .19-13.4 1.1-22 7-4.53 3.11-9.51 7.31-13 12-15.33 20.62-19.19 48.65-9 72 3 4.8 8.37 11.04 13 14 3.39 1.19 6.55 3 10 4 6.93.97 15.81-1.57 22-4 2.33-.91 4.78-1.63 7-3 19.41-12.02 34.86-32.63 46-52 19.06-33.13 32.13-67.41 44.78-103.22C550.43 626.96 559.05 587.29 578 554c3.1-5.45 12.25-19.14 20.07-13.07 7.83 6.06 9.5 15.46 10.93 24.07 1.35 8.16 1.46 16.07 2 24 1.24 18.14 0 36.81 0 55v6c0 14.63-1 29.13-1 44 0 9.23-.51 19.35 2 28 2.56 2.71 5.31-1.08 8-1-1-8.25 1.18-18.87 5.92-26.08 4.75-7.2 12.31-10.83 13.4-20.6 1.1-9.77 7.04-17.16 8.46-26.54 1.42-9.38 4.91-16.7 8.99-25.01 4.08-8.31 8.57-15.77 8.23-25.77-.34-10 7.17-19.68 3-30 5 1 7.86 6.33 12 9 8.51-11.06 8.77-25.73 8-39 5.13 1.12 6.98 7.41 11 10 2.03.07 11.51-10.17 11-12-2.98-5.03-13.22-4.57-18.07-7.93-4.86-3.35-10.48-6.38-13.7-12.3-3.22-5.92-6.49-12.82-7.23-19.77 14.03 6.16 28.69 13.55 39 25 1.13-6.13-1.78-13.46-8.08-16.92-6.31-3.46-9.57-6.45-13.69-13.31-4.12-6.86-3.14-12.95-5.23-21.77-2.09-8.83 1.4-13.96 7.75-6.75 6.35 7.21 8.57 7.57 13.02 13.98 4.45 6.41 8.22 10.83 7.02 18-1.21 7.17.19 15.88 2.99 21.99 2.79 6.11 6.75 18.16 8.22 8.78 1.47-9.38-.64-15.94 3.77-23.23 4.41-7.29 6.73-10.02 11.23-16.77 3.68 11.13 6.03 25.51 4 38 1.76-.05 3.07 1.53 5 1Z"/><path fill="#C7E8DF" fill-opacity=".98" stroke="None" d="M132 423c-.1.48 0 1 0 1 4.9-1.74 10.6-18.22 15.25-20.75 4.65-2.54 16.22-19.69 17.72-12.22 1.51 7.47-13.21 12.23-16.22 19.72-3.01 7.49-10.69 13.43-14 22-3.32 8.56-5.62 20.9-4.75 31.25.87 10.35 15.27 12.22 14 22-10.06-1.63-16.78-11.01-21-19 1.36 9.66 10.93 18.61 21 20-.58 9.09 8.79 13.23 12 19-7.84 5.32-20.61 5.22-28.92 10.08-8.3 4.86-12.76 15.12-24.08 13.92 6.82 10.41 23.66 11.07 36 12-1.97 5.52 10 15.49 5.08 20.08-4.93 4.58-12.54 4.99-14.1 12.9-1.57 7.9-4.82 14.57-3.98 23.02 7.3-4.72 16.03-6.07 23.25-10.75 7.22-4.69 7.3-14.92 12.75-18.25 3.93 2.37 5.62 13.67 4 19 1.19-2.52 1.17-5.83 1-9-.19-3.53-1-6.43-1-10 1.93 2.44 2.07 6.25 4 9 3.64-2.79 3.19-11.03 10-7-.71 5.72-4.92 10.34-6 16 2.74.88 6.45 4.8 9 2-6.03-1.78-7.22-4.85-4.23-10.23 3-5.38 7.55-.61 11.23 1.23-3.07-2.13-5.69-5.9-9-8 5.5-4.77 7.45-11.05 8-18 6.79 1.74-3.01 10.37-.65 13.69 2.37 3.33 10.61-5.86 7.65-9.69 3.11 1.73 4.92 5.33 8 7-2.05-2.57-5.26-4.86-6-8 5.28-1.64 9.7-5.89 8-12 2.54-.98 5.43-2.94 8-1-.28 1.99-1.48 3.78-1 6 .3-1.41 3.94-6.41 2-10-2.95.13-5.02 2.88-8 3-2.12-3.35-2.09-5.74 1-8-1.53.57-3.26 1.02-5 1 2.83-4.6-4.45-6.07-5-11 5.37-2.65 13.19-.5 17-6 1.67.24.17 2.85 2 3 1.83-6.85 11.2-12.68 7-21-1.26 3.08-6.87 2.28-3-1-6.1 1.53-11.94 4.64-18 4 .99 1.58.33 4.74-1 6-2.59-.08-1.71-2.54-1-5-4.26 1.85-12.02-1.38-15.08 1.92-3.06 3.3-11.58 5.77-7.92.08-2.42 1.03-4.53.9-7 0 7.19-3.44-9.63-11.15-5-20 2.64 6.96 11.78 14.94 19 13-3.26-1.64-19.21-9.74-10-9-6.94-8.15-17.25-19.78-9-32 3.74 2.09 5.2 1.1 9-1 .68 2.3-2.75 5.36 0 7 .35-6.21 5.12-2.12 7.75-6.25 2.63-4.14 10.93 1.98 10.25-2.75 13.41 4.48 21.91 19.97 10 31 9.05-3.09 7.42-14.42 9-22 2.41.58 3.97.17 6 2 2.36 9.14 5.47 20.52-4 28 3.92 3.54 10.93 4.11 15.25-.75 4.31-4.86 6.74-12.09 5.75-18.25-.99-6.16-1.3-15.41-8-12-2.75-7.06-2.2-18.33-12-20 2.38-3.8 6.68-6.24 9-10-6.39 3.72-11.25 9.42-19 8-.9-8.29 5.03-14.2 10-20-3.6 2.93-8.18 6.31-9 11-1.67-.24-.17-2.85-2-3-.61 3.41-.84 6.71-2 10-9.61-.15-5.34-12.56-5.79-19.23-.44-6.67-3.9-16.75-7.98-22s-16.62-8.82-10.15-13.69c6.48-4.86 11.82-7.98 18.92-11.08-1.21 19.65 13.4 35.13 8 55 4.25-7.13 10.67-10.73 16.75-16.25 6.08-5.51 8.69-12.62 15.25-17.75-9.16 5.73-13.65 16.41-23 21 4.57-13.49 13.05-21.62 21.25-33.75 8.2-12.14 22.7-17.13 36.77-10.27 14.08 6.85 29.36-3.62 38.98-12.98-17.5-2.52-35.7-6.81-52 2 9.62-14.6 28.64-10.53 43-16-.83-.5-.93-2.18-1-3 4.82-.47 8.39-4.8 13-5-4.78-4.31 7.59-10.35 9-16-10.16-.86-24.61-.56-33.3 5.7-8.7 6.26-14.44 15.58-26.7 13.3 1.58-8.56 4.44-20.33 0-28-2.49 6.09-8.66 7.61-11.75 13.25s-8.75 6.45-10.32 13.68c-1.57 7.22-4.98 8.49-12.91 11.09-7.93 2.61-8.76-4.67-11.02-11.02-5.27 9.48-11.97 23.61-23.77 26.23-11.8 2.62-19.19 21.37-30.23 11.77 1.8 11.1-10.24 16.11-15.25 23.75-5.01 7.65-13.77 13.24-15.75 22.25m137-76c-6.38 7.56-17.13 13.32-25 20 4.26-10.1 13.3-20.32 25-20m-57 65c-3.46-6.6 2.23-11.18 4.93-17.07 2.69-5.9 5.67-9.85 7.05-16.95 1.37-7.11-4.35-14.55 3.1-18.9 7.44-4.35 13.05-2.45 10.92 5.92-2.13 8.37-2.67 11.1-7.25 16.75-4.57 5.65-6.12 8.61-10 14-3.89 5.39-4.81 10.92-8.75 16.25m-11-43c-8.81 6.63-19.83 10.27-27 19-2.66.48-3.32-3.52-6-3 3.24-4.75 10.69-8.96 15.7-12.3 5-3.35 13.86-11.32 17.3-3.7m-38 31c-2.11 16.17 5.11 32.08 19 40-3.41 9.4-13.05 5.39-19.74 10.26-6.7 4.86-6.31 15.34-9.26 21.74-1.93-1.74-.9-6-4-6 .23 4.56-3.63 7.6-4 12-17.89-4.8-16.33-30.5-9.23-43.23 7.1-12.73 13.88-27.71 27.23-34.77m19 120c-2.44 3.51-6.33 2.97-10 2 11.21 13.17-18.57 16.66-23 7 6.09.15 17.6 7.49 21.77-1.23 4.16-8.72-12.22-8.94-16.77-11.77 9.36-3.72 18.5 9.86 28 4m3 6c5.44 5.1 11.13 26-2 20 .59 5.17-2.33-1.12-4 3 .73-7.83-7.82-23.75 6-23m-23 23c-.94-.23-1.5.92-3.02.98-1.53.05-1.65-2.85-1.98-2.98-.9.01-2.31.41-4 1-.79-3.58-3.26-4.36-6-2-2.68-3.31.41-6.75 1-10 3.66 3.86 14.17-2.94 13 6 2.61-1.93 5.69.57 8 2-.18-3.14-4.3-4.58-4-8 4.13.15 4.28 5.81 8 7-1.51 4.19.25 9.48-3 13-3.19-3.03-10.48 2.44-12-5 1.44 2.36 6.83-.04 4-2Z"/><path fill="#A9D7CB" fill-opacity=".98" stroke="None" d="M302 345c14-1.73 30.7 4.69 43 10 9.15 2.11 21.56 11.35 26 20 10.98 14.77 18.27 32.56 20 51 2.55 12.12 1.83 29.52-2 41-3.15 9.44-5.77 19.68-8.32 29.68-2.55 9.99-7.97 17.73-11.45 27.55-3.48 9.81-9.84 15.21-13.98 25.02-4.15 9.8-9.72 18.32-19.93 10.43-10.21-7.89-14.97-8.85-25.01-13.99-10.05-5.13-16.67-8.76-26.98-12.02-10.31-3.25-20.62-5.97-31.33-7.67-3.07.01-14.53 3.54-17 0-3.7-5.29 3.14-14.01 1.99-20.01-1.15-6 3.9-14.54 3.99-21.01.08-6.47 4.45-13.09 3.95-20.05-.51-6.97 4.24-11.69 8.82-16.18 4.58-4.48 6.99-9.29 9.03-14.97 2.03-5.69 7.34-9.66 10.22-14.78-6.3-.55-11.55 3.07-18 2-1.41-11.42 8.1-18.63 12-28-.11-2.26-4.03-4.74-6-7 5.13-10.63-7.45-13.64-11-4-.29.23-.79.7-1 1 1.41 5.43-3.56 7.91-7 9-1.6 1.07-3.53 2.08-5 3-6.56 5.13-9.17 12.24-15.25 17.75-6.08 5.52-12.5 9.12-16.75 16.25-.16.27-.94.65-1 1 1.83.15.33 2.76 2 3 .82-4.69 5.4-8.07 9-11 4.35-3.54 8.32-3.84 14-5 2.42-.49 5.9-1.7 9-1-1.55 4.65-1.03 12.62-7 14-2.17 1.25-4.89 2.78-7 4-2.32 3.76-6.62 6.2-9 10 9.8 1.67 9.25 12.94 12 20 6.7-3.41 7.01 5.84 8 12 .99 6.16-1.44 13.39-5.75 18.25-4.32 4.86-11.33 4.29-15.25.75 9.47-7.48 6.36-18.86 4-28-2.03-1.83-3.59-1.42-6-2-1.58 7.58.05 18.91-9 22 11.91-11.03 3.41-26.52-10-31 .68 4.73-7.62-1.39-10.25 2.75-2.63 4.13-7.4.04-7.75 6.25-2.75-1.64.68-4.7 0-7-3.8 2.1-5.26 3.09-9 1-8.25 12.22 2.06 23.85 9 32-9.21-.74 6.74 7.36 10 9-7.22 1.94-16.36-6.04-19-13-4.63 8.85 12.19 16.56 5 20 2.47.9 4.58 1.03 7 0-3.66 5.69 4.86 3.22 7.92-.08 3.06-3.3 10.82-.07 15.08-1.92-.71 2.46-1.59 4.92 1 5 1.33-1.26 1.99-4.42 1-6 6.06.64 11.9-2.47 18-4-3.87 3.28 1.74 4.08 3 1 4.2 8.32-5.17 14.15-7 21-2.21 8.28-3.17 7.74-9 13-3.09 2.26-3.12 4.65-1 8 2.98-.12 5.05-2.87 8-3 1.94 3.59-1.7 8.59-2 10-.43 8.93.08 19.14-3 27-.9-4.33-2.93-8.88-6-12-3.08-1.67-4.89-5.27-8-7 2.96 3.83-5.28 13.02-7.65 9.69-2.36-3.32 7.44-11.95.65-13.69-.55 6.95-2.5 13.23-8 18 3.31 2.1 5.93 5.87 9 8 6.75 3.38 13.99 5.32 21 8-3.9 10.02 9.27 23.03 12.92 10.92 3.66-12.1 1.12-20.39 5.08-31.92.08-3.94-.07-7.06 1-11 .92-8.04-.63-18.59 8-21 7.17-2 17.3-1.66 24 1 12.36 4.91 26.7 8.47 38.69 14.31 12 5.83 22.65 15.24 35.31 18.69.94.26 4.46.32 6 2-16.63 26.31-42.23 54.21-69 68-22.15 14.73-63.46 25.66-79-2 2.19-.76 3.32 1.3 5 2-3.66-3.66-7.74-7.15-11-11 .83-1.75 3.44-.66 5-1-4.21-.6-7.23-2.99-9-7-3.25-7.36-8.08-16.16-8-24 1.82.6 2.15 2.56 3 4 5.06 6.02 11.06 12.25 19 14 1.55-2.31 1.38-5.68 0-8 4.98 4.75 4.38-2.87 8-2 .66-4.19-4.61-5.68-6-9-5.33-2.81-11.27-4.31-17-6-2.55 2.8-6.26-1.12-9-2 1.08-5.66 5.29-10.28 6-16-6.81-4.03-6.36 4.21-10 7-.83.64-1.59 1.39-3 1 .17 3.17.19 6.48-1 9-1.41 2.97-5.22 5.2-8 7-.45.49-.6 1.57-1 2 3.27-2.34 7.15-3.97 10-7 .44 9.58 3.01 20.16-4 28 4.73-2.57 5.59 14.09 6 16 3.5 6.22-.04 12.33 1.01 18.99 1.05 6.67 4.47 10.57 6.01 16.99 1.55 6.41 4.96 13.54 8.05 5.09 3.1-8.44 3.32-9.89 4.93-18.07 11.23.3 14.14 11.1 20.75 18.25 6.62 7.14 15.82 10.66 24.25 14.75 2.35-9.46-4.92-18.27-8-27 38.94-2.05 72.82-23.07 102-48 6.61-6.61 12.91-13.94 20-20 7.07-6.44 10.74-18.59 21.31-12.31 10.56 6.28 21.27 1.48 31.69 7.31-31.7 29.49-23.82 91.55 19.99 101.01 43.82 9.46 85.17-21.4 89.01-65.01-.1-11.28-4.4-25.8-15-32 .69-1.56 3.88-4.04 5-2 13.77-3.62 39.52-16.74 42-33 .33-5.84-2.39-17.32-10-18 9.81 14.85-9.08 32.79-22 34-5.84 2.52-10.85 6-16.93 8.07-6.07 2.08-11.51 4.99-17.38 7.63-5.86 2.63-10.47 4.94-15.44 9.55-4.97 4.61-7.46 7.74-11.48 13.52-4.02 5.78-3.93 13.59-3.74 21.2.18 7.62 12.66 10.09 8.89 2.11-3.76-7.99-.26-11.7 2.08-19.08 3.32-10.44 12.93-11.22 22.7-18.3 9.76-7.09 21.09.22 22.3 11.3 2.17 7.76 2.06 14.28 0 22-.53 7.2-2.29 13.48-7 20-13.11 26.52-51.72 40.65-77 25-6.67-4.13-10.94-12.19-12-18-2.64-7.71-3.83-19.99-1.98-27.98 1.85-7.98 3.6-16.93 7.23-23.77 3.62-6.85 9.31-11.34 13.5-17.5 4.2-6.16 13.19-8.89 18.51-12.49 5.31-3.6 23.13 4.13 24.4-5.58 1.27-9.71-14.88-3.52-19.91-8.43-5.02-4.92-9.38-14.71-8.77-22.23.61-7.51-.41-18.42 4.25-24.79 4.66-6.37 7.25-14.18 13.69-18.31 6.44-4.13 15.45-9.27 22.86-7.7 7.41 1.58 15.54 5.81 16.22 14.78.68 8.97-1.26 14.54-8.75 22.25-7.49 7.71 6.36 9.08 9.83-.17 3.46-9.26 7.71-15.13 5.24-24.4-2.47-9.27-6.24-13.09-14.1-16.9-7.86-3.82-18.71-3.49-27-1.56-8.29 1.94-15 5.09-21.47 10.53-6.47 5.44-9.39 10.13-13.83 17.17-4.43 7.05-5.29 16.49-5.92 25.08-.63 8.59 2.81 16.68 8 23 3.24 3.37 8.32 6.01 10 10-16.2 5.74-34.24 15.44-52 8-5.53-1.86-12.13-3.13-18-5 9.76-20.01 21.94-35.64 31.03-56.98 9.08-21.33 15.67-47.04 16.97-71.02-.2-4.63-.13-11.45 0-16-.41-5.99-1.6-12.24-3-18-5.18-13.36-11.06-27.57-20.75-39.25S368.17 354.15 356 347c-12.5-5.33-28.12-10.38-42-10-4.61.2-8.18 4.53-13 5 .07.82.17 2.5 1 3M179 480c.26-3.27-2.83-7.77 0-11 1.37 4.65 5.51 13.43 12 10-.5-4.99-.19-9.98-6-12 3.35-.92 5.21 2.09 8 3 .05-2.13 2.13-2.82 2-5 3.01 1.48 4.6 4.63 6 7 3.02-3.17.63-6.43 0-10 4.5 2.55 5.85 10.15 5 15-.85 4.85-9.53.08-13 4 6.19 4.76-3.07 1.92-3 7-5.87.72-10.88.54-16-1 3.79-3.43-2.35-9.88-1-15-5.65 5.63-.33-6.05-2-9 3.76 1.6-.39 8.98 5 8-.24 4.24-.04 8.36 2 12 1.39-.26.78-2.05 1-3m10-4c-5 2.85-7.16-2.5-6-7 3.63-.52 4.8 4.43 6 7m-11 147c.32-1 1.08-3.22 2-4-.43 5.3.22 10.26 2 15-10.56-.38-9.56 15.04-8 23-8.48-8.43 1.86-23.06 4-33-2.6 4.91-5.68-3.3-5.93-7.07-.24-3.78-2.03-11.18.93-14.93 3.67 5.94 5.37 13.56 5 21m5 3c4.86 8.67 10.79 16.56 16 25-11.28-1.77-17.25-15.49-16-25m35 30c-.23 4.4-3.06 6.07-2 10-4.55 5.94-8.39-5.89-12 0-2.23-5.84-3.26-11.97-5-18 6.52 1.81 12.68 5.43 19 8Z"/><path fill="none" fill-opacity="0" stroke="None" d="M237 395c1.47-.92 3.4-1.93 5-3 3.52-2.34 4.7-5.73 7-9 .21-.3.71-.77 1-1 3.69-10.34 15-9.4 13 3 3.76-1.25 7.06-2.37 11-1-2.5 2.96-5.11 5.97-7 9-3.9 9.37-13.41 16.58-12 28 6.45 1.07 11.7-2.55 18-2-2.88 5.12-8.19 9.09-10.22 14.78-2.04 5.68-4.45 10.49-9.03 14.97-4.58 4.49-9.33 9.21-8.82 16.18.5 6.96-3.87 13.58-3.95 20.05-.09 6.47-5.14 15.01-3.99 21.01 1.15 6-5.69 14.72-1.99 20.01 5.82-.98 11.16-.93 17 0 10.71 1.7 21.02 4.42 31.33 7.67 10.31 3.26 16.93 6.89 26.98 12.02 10.04 5.14 14.8 6.1 25.01 13.99 10.21 7.89 15.78-.63 19.93-10.43 4.14-9.81 10.5-15.21 13.98-25.02 3.48-9.82 8.9-17.56 11.45-27.55 2.55-10 5.17-20.24 8.32-29.68 2.41-12.47 3.22-28.02 2-41-1.73-18.44-9.02-36.23-20-51-5.95-8-16.86-16.05-26-20-12.3-5.31-29-11.73-43-10-14.36 5.47-33.38 1.4-43 16 16.3-8.81 34.5-4.52 52-2-9.62 9.36-24.9 19.83-38.98 12.98-14.07-6.86-28.57-1.87-36.77 10.27-8.2 12.13-16.68 20.26-21.25 33.75 9.35-4.59 13.84-15.27 23-21Zm32-48c-11.7-.32-20.74 9.9-25 20 7.87-6.68 18.62-12.44 25-20Z"/><path fill="#DBF0EC" fill-opacity=".82" stroke="None" d="M412 412c-7.44-30.49-27.25-52.74-56-65 12.17 7.15 25.56 14.07 35.25 25.75 9.69 11.68 15.57 25.89 20.75 39.25Z"/><path fill="#DAF1ED" fill-opacity=".84" stroke="None" d="M345 355c9.14 3.95 20.05 12 26 20-4.44-8.65-16.85-17.89-26-20Z"/><path fill="none" fill-opacity="0" stroke="None" d="M212 412c3.94-5.33 4.86-10.86 8.75-16.25 3.88-5.39 5.43-8.35 10-14 4.58-5.65 5.12-8.38 7.25-16.75s-3.48-10.27-10.92-5.92c-7.45 4.35-1.73 11.79-3.1 18.9-1.38 7.1-4.36 11.05-7.05 16.95-2.7 5.89-8.39 10.47-4.93 17.07Z"/><path fill="#9CCCC0" stroke="None" d="M201 369c-3.44-7.62-12.3.35-17.3 3.7-5.01 3.34-12.46 7.55-15.7 12.3 2.68-.52 3.34 3.48 6 3 7.17-8.73 18.19-12.37 27-19Z"/><path fill="none" fill-opacity="0" stroke="None" d="M204 430c.06-.35.84-.73 1-1 5.4-19.87-9.21-35.35-8-55-7.1 3.1-12.44 6.22-18.92 11.08-6.47 4.87 6.07 8.44 10.15 13.69s7.54 15.33 7.98 22c.45 6.67-3.82 19.08 5.79 19.23 1.16-3.29 1.39-6.59 2-10Z"/><path fill="#DAEDE9" fill-opacity=".92" stroke="None" d="M250 382c3.55-9.64 16.13-6.63 11 4 1.97 2.26 5.89 4.74 6 7 1.89-3.03 4.5-6.04 7-9-3.94-1.37-7.24-.25-11 1 2-12.4-9.31-13.34-13-3Z"/><path fill="#DFF7F1" fill-opacity=".83" stroke="None" d="M242 392c3.44-1.09 8.41-3.57 7-9-2.3 3.27-3.48 6.66-7 9Z"/><path fill="#8CC2B5" stroke="None" d="M132 424c-.25 1.89-1.27 3.25-2 5-4.93 11.86-7 21.53-7 35 0 .99-.07 2.01 0 3 4.22 7.99 10.94 17.37 21 19 1.27-9.78-13.13-11.65-14-22-.87-10.35 1.43-22.69 4.75-31.25 3.31-8.57 10.99-14.51 14-22s17.73-12.25 16.22-19.72c-1.5-7.47-13.07 9.68-17.72 12.22-4.65 2.53-10.35 19.01-15.25 20.75Z"/><path fill="none" fill-opacity="0" stroke="None" d="M163 400c-13.35 7.06-20.13 22.04-27.23 34.77-7.1 12.73-8.66 38.43 9.23 43.23.37-4.4 4.23-7.44 4-12 3.1 0 2.07 4.26 4 6 2.95-6.4 2.56-16.88 9.26-21.74 6.69-4.87 16.33-.86 19.74-10.26-13.89-7.92-21.11-23.83-19-40Z"/><path fill="#DFF9F5" fill-opacity=".89" stroke="None" d="M229 417c8.01.29 6.93 8.91 2 13 5.97-1.38 5.45-9.35 7-14-3.1-.7-6.58.51-9 1Z"/><path fill="none" fill-opacity="0" stroke="None" d="M215 422c-4.97 5.8-10.9 11.71-10 20 7.75 1.42 12.61-4.28 19-8 2.11-1.22 4.83-2.75 7-4 4.93-4.09 6.01-12.71-2-13-5.68 1.16-9.65 1.46-14 5Z"/><path fill="#E5FAF8" fill-opacity=".63" stroke="None" d="M129 429c.12-.22 1 0 1 0 .73-1.75 1.75-3.11 2-5 0 0-.1-.52 0-1-.98 1.8-2.08 3.99-3 6Z"/><path fill="#D6ECE7" fill-opacity=".9" stroke="None" d="M389 467c3.83-11.48 4.55-28.88 2-41 1.22 12.98.41 28.53-2 41Z"/><path fill="#DFF9F4" fill-opacity=".87" stroke="None" d="M123 464c0-13.47 2.07-23.14 7-35 0 0-.88-.22-1 0-5.26 11.5-8.8 22.23-6 35Z"/><path fill="#E6F7F3" fill-opacity=".98" stroke="None" d="M415 446c.28-5.2.35-10.81 0-16-.13 4.55-.2 11.37 0 16Z"/><path fill="#C2E5DB" fill-opacity=".98" stroke="None" d="M710 535c1.51 2.54-8.88 12.68-11 12-4.02-2.59-5.87-8.88-11-10 .77 13.27.51 27.94-8 39-4.14-2.67-7-8-12-9 4.17 10.32-3.34 20-3 30 .34 10-4.15 17.46-8.23 25.77-4.08 8.31-7.57 15.63-8.99 25.01s-7.36 16.77-8.46 26.54c-1.09 9.77-8.65 13.4-13.4 20.6-4.74 7.21-6.92 17.83-5.92 26.08-2.69-.08-5.44 3.71-8 1 .68 2.35 1.83 1.47 1 4 1.69-.95 6.73 1.67 8 2 8.4 2.21 6.3 9.13-1 12 4.21-.58 8.15.18 8-7 5.15 5.5 11.6 14.33 21 15-1.3 4.69-7.94 5.75-11 9 5.36-1.88 9.68-6.09 15-8-1.31 1.73-2.62 3.61-4 5-.23.36 0 1 0 1 1.09 1.71-3.92 5.62-6.25 7.75s-5.9 6.01-6.75 9.25c7.42-6.78 13.43-16.51 22-22 .34 2.61-.67 4.9-2 7-.23.36 0 1 0 1 1.94-2.2 3.72-5.17 6-7 5.41 10.29 9.33 22 6 34 5.26-9.83 1.16-21.39-3.69-30.31-4.86-8.91 8.07-16.46 13.69-20.69-8.09 17.32 8.25 28.74 15 42 6.76-4.66 6.32-18.72 16.31-12.3 9.98 6.41 15.82 4.87 25.69 6.3-6.07-8.63-10.81-16.72-12.08-27.92-1.26-11.2-13.01-13.48-20.92-18.08-6.32-3.68-9.98-7.03-3-8 3.59-.65 11.96-3.59 7-8 8.09 1.76 14.12.44 20.92-4.08 6.8-4.53 6.29-11.3 7.08-16.92-2.85-1.93-6.55.26-9 2 1.29-2.98 3.78-7.13 7-8 5.96-11.78 3.59-27.65-10-33-.59-5.38-1.42-16.28 6.78-12.78 8.19 3.5 12.7.92 19.54-.9 6.84-1.81 10.5-4.71 14.43-9.57 3.94-4.86 8.27-7.91 10.48-13.52 2.21-5.61 8.2-8.46 9.77-14.23-14.72 1.67-32.57 1.06-44.77 9.23-12.2 8.17-15.24 20.85-25.23 25.77 5.13-20.01 12.34-33.35 30.75-43.25 18.41-9.9 14.55-39.05 17.25-55.75-10.05 6.75-15.7 13.69-24.25 22.75S728.93 580.6 726 592c-3.95-5.59-.11-13.65-1-21s.65-14 1.01-20.99c.35-6.99 5.05-9.39 8.24-15.76 3.19-6.37 12.35.49 16.75.75.14.01.66-1 1-1-2.47-3.72-10.92-3.75-15-4-.18-5.27 4.2-7.06 9-6-.2-.09 0-1 0-1-1.93.53-3.24-1.05-5-1 2.03-12.49-.32-26.87-4-38-4.5 6.75-6.82 9.48-11.23 16.77-4.41 7.29-2.3 13.85-3.77 23.23-1.47 9.38-5.43-2.67-8.22-8.78-2.8-6.11-4.2-14.82-2.99-21.99 1.2-7.17-2.57-11.59-7.02-18-4.45-6.41-6.67-6.77-13.02-13.98-6.35-7.21-9.84-2.08-7.75 6.75 2.09 8.82 1.11 14.91 5.23 21.77 4.12 6.86 7.38 9.85 13.69 13.31 6.3 3.46 9.21 10.79 8.08 16.92-10.31-11.45-24.97-18.84-39-25 .74 6.95 4.01 13.85 7.23 19.77 3.22 5.92 8.84 8.95 13.7 12.3 4.85 3.36 15.09 2.9 18.07 7.93m6-2c-1.65-2.53-3.4-5.04-4-9 2.8 1.97 4.64 5.37 4 9m-1 2c1.18 1.95 2.98 3.58 3 6-5.04 2.95-10.52 7.81-13 13-11.52-4.56 4.98-15.09 10-19m7 11c.87-2.76-3-6.59 1-8 1.96 1.86 1.2 6.52-1 8m-4-3c3.63 17.9 5.19 39.63 0 57-4.02-7.4-2.41-17.21-3.78-25.22-1.36-8.01-7.21-13.23-9.22-20.78 4.87-2.88 7.68-9.3 13-11m-16 87c2.71-9.41-2.61-20-3.93-28.07-1.31-8.07-12.21-13.63-10.28-21.16 1.93-7.53 11.47 5.32 16.46 8.98 4.98 3.67 12.67 14.94 10.75 22.25-1.92 7.32-2.09 21.97-13 18m15-17c-1.76-2.31-1.73-7.43 1-9 2.18 2.22.24 6.89-1 9m-28 7c3.61-2.59 7.4 2.24 6 6-5.78.04-9.67-5.32-9-11 1.92.85 2.78 3.05 3 5m-28 19c.52-7.64 4.86-14.17 8-21 2.46 1.15 10.22 9.66 7.07 13.08-3.15 3.41-12.21 2.66-15.07 7.92m22 6c-1.33 7.65-9 14.72-5 23 2.26-5.24.72-11.96 5.25-16.75 4.54-4.78 11.54-1.52 16.5.34 4.95 1.86 9.46-2.64 13.02 3.64 3.56 6.28 2.22 9.12.23 15.77 4.86-2.34 10.04-1.54 13-6-.04 10.74-5.6 17.25-14 21-.26-3.84-5.68.17-9-1-1.51 9.43-12.02 4.3-18 3-.22 1.31-1.75 2.98-2 5-7.14-2.57-10.95-8.69-17-13 .51-13.9-2.45-33.79 17-35m-25 28c-8.54-8.64-6.11 6.29-11 8 .4-7.66 4.08-14.45 5-22 2.87 2.7 3.5 9.71 6 14m-5 19c-.71 8.65 14.51 9.1 15 20 .48 10.9-1.69 20.74-13 20 5.72-2.25 12.98-8.81 10-15-3.08 2.7-5.6 13.5-10 7-.64 3.33-5.6 5.77-4 9-5.14 2.26-11.29.84-15-3 2.45-1.16 5.48 1.99 7 0-1.26-2.14-2.38-3.64 0-5-14.63-6.57-5.37-33.8 10-22-1.59-7.09-9.84-3.9-15-4 1.22-3.99 5.49-5.72 5-10 3.68-.02 6.74 1.86 10 3m60-3c-1.5 5.02-6.55 6.82-11 8 .73-4.72 6.64-7.25 11-8m-16 49c-1.36 3.68-3.11 5.56-3 10-5.85-3.3-6.85-12.55-13-15-.79-5.15 2.09-9.27 3-14 3.37-.58.75 4.72 4 5v-10c5.84.12 3.58 7.13 9.7 8.3 6.11 1.17 2.97 9.16 2.65 12.39-.31 3.24 10.62 6.92 6.86 10.54-3.75 3.62-6.69-8.34-10.21-7.23Z"/><path fill="#68BFAD" stroke="None" d="M193 470c4.24 4.91.38 9.69-2 14-4.85.35-8.97-2.43-12-4-.22.95.39 2.74-1 3-2.04-3.64-2.24-7.76-2-12-5.39.98-1.24-6.4-5-8 1.67 2.95-3.65 14.63 2 9-1.35 5.12 4.79 11.57 1 15 5.12 1.54 10.13 1.72 16 1-.07-5.08 9.19-2.24 3-7 3.47-3.92 12.15.85 13-4 .85-4.85-.5-12.45-5-15 .63 3.57 3.02 6.83 0 10-1.4-2.37-2.99-5.52-6-7 .13 2.18-1.95 2.87-2 5Z"/><path fill="#3B9A89" stroke="None" d="M179 480c3.03 1.57 7.15 4.35 12 4 2.38-4.31 6.24-9.09 2-14-2.79-.91-4.65-3.92-8-3 5.81 2.02 5.5 7.01 6 12-6.49 3.43-10.63-5.35-12-10-2.83 3.23.26 7.73 0 11Z"/><path fill="#399585" stroke="None" d="M189 476c-1.2-2.57-2.37-7.52-6-7-1.16 4.5 1 9.85 6 7Z"/><path fill="#9AD1C4" stroke="None" d="M182 520c-9.5 5.86-18.64-7.72-28-4 4.55 2.83 20.93 3.05 16.77 11.77-4.17 8.72-15.68 1.38-21.77 1.23 4.43 9.66 34.21 6.17 23-7 3.67.97 7.56 1.51 10-2Z"/><path fill="none" fill-opacity="0" stroke="None" d="M208 535c5.83-5.26 6.79-4.72 9-13-1.83-.15-.33-2.76-2-3-3.81 5.5-11.63 3.35-17 6 .55 4.93 7.83 6.4 5 11 1.74.02 3.47-.43 5-1Z"/><path fill="#D8F2ED" fill-opacity=".84" stroke="None" d="M746 524c2.21 1.07 10.45 2.58 11 6-1.69-5.61-6.17-5.68-11-7 0 0-.2.91 0 1Z"/><path fill="#EBFCF7" fill-opacity=".54" stroke="None" d="M716 533c.64-3.63-1.2-7.03-4-9 .6 3.96 2.35 6.47 4 9Z"/><path fill="#8EC2B6" stroke="None" d="M752 534c2.88-.03 5.6-.24 5-4-.55-3.42-8.79-4.93-11-6-4.8-1.06-9.18.73-9 6 4.08.25 12.53.28 15 4Z"/><path fill="#E7FEFB" fill-opacity=".73" stroke="None" d="M235 526c2.47 3.54 13.93.01 17 0-5.84-.93-11.18-.98-17 0Z"/><path fill="#99D9C8" stroke="None" d="M185 526c-13.82-.75-5.27 15.17-6 23 1.67-4.12 4.59 2.17 4-3 13.13 6 7.44-14.9 2-20Z"/><path fill="#E4F9F6" fill-opacity=".67" stroke="None" d="M752 534c-.34 0-.86 1.01-1 1 5.14 2.06 7.07-1.43 6-5 .6 3.76-2.12 3.97-5 4Z"/><path fill="#DDF6F2" fill-opacity=".92" stroke="None" d="M238 535c7.41-1.11 16.87-.35 24 1-6.7-2.66-16.83-3-24-1Z"/><path fill="none" fill-opacity="0" stroke="None" d="M230 556c-.43 3.71-.38 7.28-1 11-3.96 11.53-1.42 19.82-5.08 31.92-3.65 12.11-16.82-.9-12.92-10.92-7.01-2.68-14.25-4.62-21-8-3.68-1.84-8.23-6.61-11.23-1.23-2.99 5.38-1.8 8.45 4.23 10.23 5.73 1.69 11.67 3.19 17 6 8.97 4.74 11.36 15.57 17 23-14.21 1.86-30.66-4.55-38-18-.85-1.44-1.18-3.4-3-4-.08 7.84 4.75 16.64 8 24 4.67 6.6 17.54 5.58 24 7 1 0 2-.03 3 0 14.37.49 22.12 11.65 27 24-1.57-.39-4.22.94-5-1-.3-.24-1 0-1 0-3.49-2.2-9.46-2.64-13-3-7.25.11-14.34-2.34-20-8-1.68-.7-2.81-2.76-5-2 15.54 27.66 56.85 16.73 79 2 8.88-5.91 17.89-12.07 26-19l11-11c10.47-12.25 23.63-23.12 29-38-.87-.95-2.68-.54-3-2-12.66-3.45-23.31-12.86-35.31-18.69-11.99-5.84-26.33-9.4-38.69-14.31-7.13-1.35-16.59-2.11-24-1-8.63 2.41-7.08 12.96-8 21Z"/><path fill="#EBFFFC" fill-opacity=".55" stroke="None" d="M699 547c2.12.68 12.51-9.46 11-12 .51 1.83-8.97 12.07-11 12Z"/><path fill="#91C6BA" stroke="None" d="M715 535c-5.02 3.91-21.52 14.44-10 19 2.48-5.19 7.96-10.05 13-13-.02-2.42-1.82-4.05-3-6Z"/><path fill="#89CBBD" stroke="None" d="M157 547c3.13-.03 3.09.67 6-2 2.44 1.98 3.41 8.04-1 8 1.95-.92 2.34-5.86 0-4 2.83 1.96-2.56 4.36-4 2 1.52 7.44 8.81 1.97 12 5 3.25-3.52 1.49-8.81 3-13-3.72-1.19-3.87-6.85-8-7-.3 3.42 3.82 4.86 4 8-2.31-1.43-5.39-3.93-8-2 1.17-8.94-9.34-2.14-13-6-.59 3.25-3.68 6.69-1 10 2.74-2.36 5.21-1.58 6 2 1.69-.59 3.1-.99 4-1m3-9c-3.96.62-5.21 5.71-8 7-1.01-4.55 3.74-8.14 8-7Z"/><path fill="#4C9D8D" stroke="None" d="M160 538c-4.26-1.14-9.01 2.45-8 7 2.79-1.29 4.04-6.38 8-7Z"/><path fill="none" fill-opacity="0" stroke="None" d="M722 546c2.2-1.48 2.96-6.14 1-8-4 1.41-.13 5.24-1 8Z"/><path fill="#D7EEE9" fill-opacity=".84" stroke="None" d="M510 575c12.92-1.21 31.81-19.15 22-34 7.61.68 10.33 12.16 10 18 .86-7.56-1.15-19.91-11-19 8.08 17-7.2 29.05-21 35Z"/><path fill="#D4EBE6" fill-opacity=".88" stroke="None" d="M578 554c3.82-4.89 8.41-12.02 15.01-12.99 6.59-.97 13.96 12.71 7.99 11.99 5.84 1.58 4.04 9.56 8 12-1.43-8.61-3.1-18.01-10.93-24.07-7.82-6.07-16.97 7.62-20.07 13.07Z"/><path fill="#A8D6CA" fill-opacity=".98" stroke="None" d="M578 554c-18.95 33.29-27.57 72.96-40.22 108.78C525.13 698.59 512.06 732.87 493 766c-6.32 18.09-27.8 44.83-46 52-2.22 1.37-4.67 2.09-7 3-6.22 3.47-13.79 6.39-22 4-3.45-1-6.61-2.81-10-4-5.6-1.96-10.26-7.73-13-14-10.19-23.35-6.33-51.38 9-72 2.44-4.51 8.56-9.92 13-12 8.6-5.9 10-6.81 22-7 12-.19 4.41-10.33-4.93-7.93-9.33 2.4-13.81 3.61-20.99 8.01-7.18 4.4-8.93 8.01-14.33 13.67-5.4 5.67-7.96 10.87-10.97 18.03-3.01 7.16-4.94 15.16-5.79 23.21-.85 8.06-1.32 18.28 1.03 25.99 2.36 7.7 4.05 13.02 8.21 19.79 4.16 6.77 9.73 9.06 16.54 12.46 6.81 3.39 16.92 4.25 24.48 3.16 7.56-1.08 11.98-4.04 18.75-7.39 21.4-15.44 35.06-35.3 50-56 15.91-32.17 31.61-63.54 43.02-97.98 11.42-34.43 21.52-70.5 35.98-104.02 1.1-3.65 2.69-9.89 6-14 8.15 8.83 2.55 24.17 4 37 1.45 12.83-1.65 26.05-2 39-.35 12.95.39 27.75 0 41s1.13 28.51-1 41c.62 9.12 1.19 19.09 3 28 1.45 7.12 1.15 15.63 3 23-1 .11-2.73-.47-3 1 11.69-1.22 23.72 5.08 33 12-8.03 3.97-17.44 6.4-27 6-.29 2.49 1.64 4.39 1 7h-3c2.64.08 8.21-.56 11 1-6.23 3.24-10.41 8.68-15 14-2.01-4.67-7.68.69-11 2-2.1-5.09-2.66-14.41 4-17h-1c-13.64 1.62-26.05 12.29-32 24 8-.42 19.62.98 26.92-1.08 7.3-2.05 11.61-6.74 17.34-10.66 5.72-3.93 10.24 9.47 11.74 13.74 1.44 4.09.78 8.49 0 13 3.11.34 3.88-4.38 7-4 3.04 9.12 22.02 11.64 19-2-1.65-10.35.77-17 1-27-3.31 4.06-3.6 11.9-5 17-3.79-2.27-6.63 3.65-10 5 2.09-4.95 7.23-9.69 9.31-14.69 2.07-5.01 5.71-15.23-1.31-15.31-1.23-3.7 2.6-5.34 4-8-.74.78-2.11 1.46-3 2-.62-1.94 1.2-3.13 1-5-.01-1.26-2.12-.56-2-2 4.9-2.31 9.92-5.26 13-10-3.09 2.66-6.13 5.97-10 7-1.61-7.34 1.94-13.04 9-13 3.06-3.25 9.7-4.31 11-9-9.4-.67-15.85-9.5-21-15 .15 7.18-3.79 6.42-8 7-2.67 1.05-5.22 2.32-8 3 .06-2.12.23-4.22-1-6-3.1-12.92-2-29.11-2-43 0-14.91.66-30.13 2-44v-6c-1.7-17.51-.5-37.59 0-55-.54-7.93-.65-15.84-2-24-3.96-2.44-2.16-10.42-8-12 5.97.72-1.4-12.96-7.99-11.99-6.6.97-11.19 8.1-15.01 12.99m31 63c-3.87 5.44-1.13 13.25-7 16 1.86 2.32 2.37.64 5 1-.41 6.22-2.15 9.71-1 16-6.07 1.24-10.52.78-14.75-4.25-4.24-5.02 2.5-13.07-1.25-17.75 2.5.39 3.38 4.44 7 3-2-4.83 4.08-3.98 3-10 4.25 1.33 5.93-2.82 9-4m12 153c-6.87 1.51-8.76-7.41-7-12 7.42-.33 7.79 5.86 7 12m-3 18c-2.76-7.94 5.23-5.25 0 0Z"/><path fill="none" fill-opacity="0" stroke="None" d="M204 565c3.07 3.12 5.1 7.67 6 12 3.08-7.86 2.57-18.07 3-27-.48-2.22.72-4.01 1-6-2.57-1.94-5.46.02-8 1 1.7 6.11-2.72 10.36-8 12 .74 3.14 3.95 5.43 6 8Zm514-22c-5.32 1.7-8.13 8.12-13 11 2.01 7.55 7.86 12.77 9.22 20.78 1.37 8.01-.24 17.82 3.78 25.22 5.19-17.37 3.63-39.1 0-57Z"/><path fill="#5C9E91" stroke="None" d="M157 547c.33.13.45 3.03 1.98 2.98 1.52-.06 2.08-1.21 3.02-.98 2.34-1.86 1.95 3.08 0 4 4.41.04 3.44-6.02 1-8-2.91 2.67-2.87 1.97-6 2Z"/><path fill="#D6EFEA" fill-opacity=".89" stroke="None" d="M580 567c.93-3.74 3.26-9.28 8-9 .04 39.12 1.38 80.61-2 119 .03 2.85 1.14 7.38 1 11-.29 7.27-.56 14.81 0 23 2.13-12.49.61-27.75 1-41s-.35-28.05 0-41 3.45-26.17 2-39c-1.45-12.83 4.15-28.17-4-37-3.31 4.11-4.9 10.35-6 14Z"/><path fill="#E3FAF7" fill-opacity=".71" stroke="None" d="M229 567c.62-3.72.57-7.29 1-11-1.07 3.94-.92 7.06-1 11Z"/><path fill="#DAF3ED" fill-opacity=".84" stroke="None" d="M385 579c17.76 7.44 35.8-2.26 52-8-1.68-3.99-6.76-6.63-10-10 1.56 3.43 6.5 5.09 7 9-16.34 9.01-31.18 11.55-49 9Z"/><path fill="#DDF7F2" fill-opacity=".85" stroke="None" d="M336 569c.32 1.46 2.13 1.05 3 2-5.37 14.88-18.53 25.75-29 38-3.37 3.94-7.11 7.67-11 11-8.11 6.93-17.12 13.09-26 19 26.77-13.79 52.37-41.69 69-68-1.54-1.68-5.06-1.74-6-2Z"/><path fill="#7DA39B" stroke="None" d="M167 579c1.41.39 2.17-.36 3-1-1.93-2.75-2.07-6.56-4-9 0 3.57.81 6.47 1 10Z"/><path fill="none" fill-opacity="0" stroke="None" d="M702 630c10.91 3.97 11.08-10.68 13-18 1.92-7.31-5.77-18.58-10.75-22.25-4.99-3.66-14.53-16.51-16.46-8.98-1.93 7.53 8.97 13.09 10.28 21.16 1.32 8.07 6.64 18.66 3.93 28.07Z"/><path fill="#D8EFEA" fill-opacity=".99" stroke="None" d="M611 644c0-18.19 1.24-36.86 0-55-.5 17.41-1.7 37.49 0 55Z"/><path fill="#7BB5A8" stroke="None" d="M157 597c-5.43 5.82-9.76 12.3-11 20-.03 1.33 0 2.67 0 4 0 6.38 1.06 14.69 7.25 9.25 6.18-5.45 5.95-6.1 9.75-12.25 7.01-7.84 4.44-18.42 4-28-2.85 3.03-6.73 4.66-10 7Z"/><path fill="#DAF2ED" fill-opacity=".87" stroke="None" d="M510 626c.6-6.82-1.36-15.03-3.68-20.32-2.32-5.29-9.78-10.59-6.32-13.68-1.12-2.04-4.31.44-5 2 10.6 6.2 14.9 20.72 15 32Z"/><path fill="#DBF3EF" fill-opacity=".85" stroke="None" d="M146 617c1.24-7.7 5.57-14.18 11-20 .4-.43.55-1.51 1-2-8.07 5.21-11.81 12.32-12 22Z"/><path fill="#CBE2DC" fill-opacity=".96" stroke="None" d="M179 600c7.34 13.45 23.79 19.86 38 18-5.64-7.43-8.03-18.26-17-23 1.39 3.32 6.66 4.81 6 9-3.62-.87-3.02 6.75-8 2 1.38 2.32 1.55 5.69 0 8-7.94-1.75-13.94-7.98-19-14Z"/><path fill="#ECFFFB" fill-opacity=".5" stroke="None" d="M328 615c7.09-6.06 13.39-13.39 20-20-7.09 6.06-13.39 13.39-20 20Z"/><path fill="#D8F1EC" fill-opacity=".84" stroke="None" d="M456 618c8.26-14.97 38.61-29.91 45-7-1.21-11.08-12.54-18.39-22.3-11.3-9.77 7.08-19.38 7.86-22.7 18.3Z"/><path fill="none" fill-opacity="0" stroke="None" d="M178 624c.02-.5 0-1 0-1 .37-7.44-1.33-15.06-5-21-2.96 3.75-1.17 11.15-.93 14.93.25 3.77 3.33 11.98 5.93 7.07Z"/><path fill="#8AB6AA" stroke="None" d="M717 613c1.24-2.11 3.18-6.78 1-9-2.73 1.57-2.76 6.69-1 9Z"/><path fill="#EAFFFC" fill-opacity=".69" stroke="None" d="M299 620c3.89-3.33 7.63-7.06 11-11l-11 11Z"/><path fill="#73BBA3" stroke="None" d="M689 620c-.22-1.95-1.08-4.15-3-5-.67 5.68 3.22 11.04 9 11 1.4-3.76-2.39-8.59-6-6Z"/><path fill="#D3EAE5" fill-opacity=".92" stroke="None" d="M163 618c-3.8 6.15-3.57 6.8-9.75 12.25-6.19 5.44-7.25-2.87-7.25-9.25-2.32 5.01-.34 12.17-1 18 5.29-4.58 11.71-9.82 17-15 1.23-1.21 1.56-3.19 3-4-.47 2.57.54 4.65 1 7 .69 2.55 1.87 4.59 3 7-.41-1.91-1.27-18.57-6-16Z"/><path fill="#77C5AF" stroke="None" d="M609 617c-3.07 1.18-4.75 5.33-9 4 1.08 6.02-5 5.17-3 10-3.62 1.44-4.5-2.61-7-3 3.75 4.68-2.99 12.73 1.25 17.75 4.23 5.03 8.68 5.49 14.75 4.25-1.15-6.29.59-9.78 1-16-2.63-.36-3.14 1.32-5-1 5.87-2.75 3.13-10.56 7-16Z"/><path fill="none" fill-opacity="0" stroke="None" d="M661 639c2.86-5.26 11.92-4.51 15.07-7.92 3.15-3.42-4.61-11.93-7.07-13.08-3.14 6.83-7.48 13.36-8 21Z"/><path fill="#7CADA2" stroke="None" d="M178 623s.02.5 0 1c-2.14 9.94-12.48 24.57-4 33-1.56-7.96-2.56-23.38 8-23-1.78-4.74-2.43-9.7-2-15-.92.78-1.68 3-2 4Z"/><path fill="#ECFDF8" fill-opacity=".44" stroke="None" d="M162 624c1.45.06 3.22 1.82 4 3-.46-2.35-1.47-4.43-1-7-1.44.81-1.77 2.79-3 4Z"/><path fill="#DEF6F2" fill-opacity=".82" stroke="None" d="M193 627c4.78.68 10.17 0 15 0-6.46-1.42-19.33-.4-24-7 1.77 4.01 4.79 6.4 9 7Z"/><path fill="none" fill-opacity="0" stroke="None" d="M183 626c-1.25 9.51 4.72 23.23 16 25-5.21-8.44-11.14-16.33-16-25Z"/><path fill="#85B8AD" fill-opacity=".99" stroke="None" d="M199 639c5.66 5.66 12.75 8.11 20 8 4.43-.06 10.39-1.18 13 3 0 0 .7-.24 1 0 1.83-9.62-10.14-20.47-22-23-1-.03-2 0-3 0-4.83 0-10.22.68-15 0-1.56.34-4.17-.75-5 1 3.26 3.85 7.34 7.34 11 11m16-1c-2.1 2.46-5.72.15-8-1 2.09-2.4 5.32 1.18 8 1Z"/><path fill="#D5ECE8" fill-opacity=".88" stroke="None" d="M233 650c.78 1.94 3.43.61 5 1-4.88-12.35-12.63-23.51-27-24 11.86 2.53 23.83 13.38 22 23Z"/><path fill="#DEF7F2" fill-opacity=".84" stroke="None" d="M494 653c4.71-6.52 6.47-12.8 7-20-1.82 6.82-3.88 13.68-7 20Z"/><path fill="#B4E4D9" stroke="None" d="M215 638c-2.68.18-5.91-3.4-8-1 2.28 1.15 5.9 3.46 8 1Z"/><path fill="#8DD3C2" stroke="None" d="M683 645c-19.45 1.21-16.49 21.1-17 35 6.05 4.31 9.86 10.43 17 13 .25-2.02 1.78-3.69 2-5 5.98 1.3 16.49 6.43 18-3 3.32 1.17 8.74-2.84 9 1 8.4-3.75 13.96-10.26 14-21-2.96 4.46-8.14 3.66-13 6 1.99-6.65 3.33-9.49-.23-15.77-3.56-6.28-8.07-1.78-13.02-3.64-4.96-1.86-11.96-5.12-16.5-.34-4.53 4.79-2.99 11.51-5.25 16.75-4-8.28 3.67-15.35 5-23m11 15c1.73-.69 4.21.52 6 0-2.57 1.06-2.68 2.07-3 5 3.01-2.37 9.48-.17 5.74 3.74s-5.6-2.97-9.74.26c2.77 6.42 13.75 4.52 14-2 2.49 2.27-.36 6.81-3 8-1.09 1.18-3.81 1.98-2 4-5.5.15-9.58-3.34-14-6 .07 1.2 1.78 2.51 1 4-4.56-2.26-5.62-7.3-5-12 1.28-.53 1.86.97 3 1-1.28-4.66-4.49-13.27 3-15-1.19 4.02-4.53 8.3-1 12-.51-7.49 10.5-11.52 14-6-2.26-.88-10.36-.33-9 3Z"/><path fill="#D1E7E4" stroke="None" d="M232 650c-2.61-4.18-8.57-3.06-13-3 3.54.36 9.51.8 13 3Z"/><path fill="#78B4A6" stroke="None" d="M218 656c-6.32-2.57-12.48-6.19-19-8 1.74 6.03 2.77 12.16 5 18 3.61-5.89 7.45 5.94 12 0-1.06-3.93 1.77-5.6 2-10Z"/><path fill="#DFF8F2" fill-opacity=".93" stroke="None" d="M609 694c0-.04 1 0 1 0 0-14.87 1-29.37 1-44-1.34 13.87-2 29.09-2 44Z"/><path fill="#55B3A0" stroke="None" d="M687 666c.68 2.46.86 4.57 1 7 4.42 2.66 8.5 6.15 14 6-1.81-2.02.91-2.82 2-4-5.21 2.46-10.94-.72-15-4 3.88-.88.26-7.41 5-11-1.36-3.33 6.74-3.88 9-3-3.5-5.52-14.51-1.49-14 6-3.53-3.7-.19-7.98 1-12-7.49 1.73-4.28 10.34-3 15Z"/><path fill="none" fill-opacity="0" stroke="None" d="M658 673c-2.5-4.29-3.13-11.3-6-14-.92 7.55-4.6 14.34-5 22 4.89-1.71 2.46-16.64 11-8Z"/><path fill="#DBF2EC" fill-opacity=".92" stroke="None" d="M417 678c-5.08-3.7-10.09-12.42-12-18 1.06 5.81 5.33 13.87 12 18Z"/><path fill="#2C8A75" stroke="None" d="M704 675c2.64-1.19 5.49-5.73 3-8-.25 6.52-11.23 8.42-14 2 4.14-3.23 6 3.65 9.74-.26s-2.73-6.11-5.74-3.74c.32-2.93.43-3.94 3-5-1.79.52-4.27-.69-6 0-4.74 3.59-1.12 10.12-5 11 4.06 3.28 9.79 6.46 15 4Z"/><path fill="#C1F7EE" stroke="None" d="M688 673c-.14-2.43-.32-4.54-1-7-1.14-.03-1.72-1.53-3-1-.62 4.7.44 9.74 5 12 .78-1.49-.93-2.8-1-4Z"/><path fill="#ECFFFA" fill-opacity=".44" stroke="None" d="M587 688c.14-3.62-.97-8.15-1-11-.33 3.78.79 7.95 1 11Z"/><path fill="#E8F7F2" fill-opacity=".7" stroke="None" d="M732 681c-3.22.87-5.71 5.02-7 8 2.45-1.74 6.15-3.93 9-2 .67-2.56 2.43-4.51 3-7-.81 3.02-7.59 1.65-5 1Z"/><path fill="#91D3C3" stroke="None" d="M653 692c-3.26-1.14-6.32-3.02-10-3 .49 4.28-3.78 6.01-5 10 5.16.1 13.41-3.09 15 4-15.37-11.8-24.63 15.43-10 22-2.38 1.36-1.26 2.86 0 5-1.52 1.99-4.55-1.16-7 0 3.71 3.84 9.86 5.26 15 3-1.6-3.23 3.36-5.67 4-9 4.4 6.5 6.92-4.3 10-7 2.98 6.19-4.28 12.75-10 15 11.31.74 13.48-9.1 13-20-.49-10.9-15.71-11.35-15-20m-4 24c-4.9 1.94-5.54 4.38-5-3 .21-2.82-.11-4.85-1-8 3.22-.63 4.74.86 9 0 .81 3.57-4.71-1.21-4 3 6.59 1.33 3.12 8.51 6 12-1.76 3.36-8.33 7.47-11 3 2.8-.56 10.72-7.38 6-7Z"/><path fill="#8BC5B6" stroke="None" d="M713 689c-4.36.75-10.27 3.28-11 8 4.45-1.18 9.5-2.98 11-8Z"/><path fill="#E3FBF5" fill-opacity=".81" stroke="None" d="M611 737c-.05-2.02.81-5.64 1-8 .12-1.55.66-1.97 1-3 .83-2.53-.32-1.65-1-4-2.51-8.65-2-18.77-2-28 0 0-1-.04-1 0 0 13.89-1.1 30.08 2 43Z"/><path fill="#5AB09E" stroke="None" d="M644 713c4.22-4.22 4.48 1.62 5 3 4.72-.38-3.2 6.44-6 7 2.67 4.47 9.24.36 11-3-2.88-3.49.59-10.67-6-12-.71-4.21 4.81.57 4-3-4.26.86-5.78-.63-9 0 .89 3.15 1.21 5.18 1 8Z"/><path fill="#41927F" stroke="None" d="M644 713c-.54 7.38.1 4.94 5 3-.52-1.38-.78-7.22-5-3Z"/><path fill="#7CB6AA" stroke="None" d="M697 738c3.52-1.11 6.46 10.85 10.21 7.23 3.76-3.62-7.17-7.3-6.86-10.54.32-3.23 3.46-11.22-2.65-12.39-6.12-1.17-3.86-8.18-9.7-8.3v10c-3.25-.28-.63-5.58-4-5-.91 4.73-3.79 8.85-3 14 6.15 2.45 7.15 11.7 13 15-.11-4.44 1.64-6.32 3-10Z"/><path fill="#ECFEFB" fill-opacity=".45" stroke="None" d="M702 724c-3.18-2.18-5.45-6.13-3-8-6.98.97-3.32 4.32 3 8Z"/><path fill="#DFF3ED" fill-opacity=".86" stroke="None" d="M404 735c3.49-4.69 8.47-8.89 13-12-4.44 2.08-10.56 7.49-13 12Z"/><path fill="#EDFCF7" fill-opacity=".27" stroke="None" d="M612 729c1.4-1.83 6.97-1.18 9-1-1.27-.33-6.31-2.95-8-2-.34 1.03-.88 1.45-1 3Z"/><path fill="none" fill-opacity="0" stroke="None" d="M612 729c-.19 2.36-1.05 5.98-1 8 1.23 1.78 1.06 3.88 1 6 2.78-.68 5.33-1.95 8-3 7.3-2.87 9.4-9.79 1-12-2.03-.18-7.6-.83-9 1Z"/><path fill="#DAF2ED" fill-opacity=".83" stroke="None" d="M578 776c-2.82-2.08-9.85.71-10-5 7.07-3.04 13.42-8.99 22-8 .27-1.47 2-.89 3-1-1.85-7.37-1.55-15.88-3-23-1.67 5.89.09 13.88 0 21-8.97 2.97-21.15 5.93-25 15 4.36.74 8.43 1 13 1Z"/><path fill="none" fill-opacity="0" stroke="None" d="M638 757c-7.06-.04-10.61 5.66-9 13 3.87-1.03 6.91-4.34 10-7 3.15-2.72 6.96-5.99 10-9 1.38-1.39 2.69-3.27 4-5-5.32 1.91-9.64 6.12-15 8Z"/><path fill="#7BB4A6" stroke="None" d="M656 758c-4.87 12.38-7.63 25.32-1 38 2.19-4 8.23-.01 5 4 3.77-2.11 3.22-7.92 7-10 .64-1.86.72-3 1-5 3.33-12-.59-23.71-6-34-2.28 1.83-4.06 4.8-6 7Z"/><path fill="#D0E5E2" fill-opacity=".81" stroke="None" d="M639 763c2.84-2.34 6.76-5.74 10-8 0 0-.23-.64 0-1-3.04 3.01-6.85 6.28-10 9Z"/><path fill="#90B8AF" fill-opacity=".99" stroke="None" d="M639 763c-3.08 4.74-8.1 7.69-13 10-.12 1.44 1.99.74 2 2 1.27.8 2.62-1.78 4-1-.73 1.34-1.34 2.64-2 4-1.4 2.66-5.23 4.3-4 8 7.02.08 3.38 10.3 1.31 15.31-2.08 5-7.22 9.74-9.31 14.69 3.37-1.35 6.21-7.27 10-5 1.4-5.1 1.69-12.94 5-17v-1c0-4.23.06-8.46 1-12 .79-2.98 1.22-6.03 2-9 .85-3.24 4.42-7.12 6.75-9.25s7.34-6.04 6.25-7.75c-3.24 2.26-7.16 5.66-10 8Z"/><path fill="#C6E1DB" fill-opacity=".89" stroke="None" d="M667 790c-3.78 2.08-3.23 7.89-7 10 3.23-4.01-2.81-8-5-4-6.63-12.68-3.87-25.62 1-38 0 0-.23-.64 0-1-13.37 14.17-3.35 34.23 1 50 4.1-4.7 7.92-10.97 10-17Z"/><path fill="none" fill-opacity="0" stroke="None" d="M621 770c.79-6.14.42-12.33-7-12-1.76 4.59.13 13.51 7 12Z"/><path fill="#7BB5A7" stroke="None" d="M590 763c-8.58-.99-14.93 4.96-22 8 .15 5.71 7.18 2.92 10 5 0 0 .57-.17 1 0 5.75 2.26 10.64 4.57 17 5 9.56.4 18.97-2.03 27-6-9.28-6.92-21.31-13.22-33-12m12 10c-2.43 2.13-6.82.47-10 1 .88-4.58 6.91-.23 10-1Z"/><path fill="#DFF9F5" fill-opacity=".85" stroke="None" d="M447 818c18.2-7.17 39.68-33.91 46-52-11.14 19.37-26.59 39.98-46 52Z"/><path fill="#DFF9F5" fill-opacity=".82" stroke="None" d="M451 825c22.19-10.97 39.38-34.52 50-56-14.94 20.7-28.6 40.56-50 56Z"/><path fill="#AFE2D6" stroke="None" d="M602 773c-3.09.77-9.12-3.58-10 1 3.18-.53 7.57 1.13 10-1Z"/><path fill="none" fill-opacity="0" stroke="None" d="M628 775c.2 1.87-1.62 3.06-1 5 .89-.54 2.26-1.22 3-2 .66-1.36 1.27-2.66 2-4-1.38-.78-2.73 1.8-4 1Z"/><path fill="#DEF8F3" fill-opacity=".85" stroke="None" d="M582 788h1c3.66 0 7.34-.11 11 0h3c.64-2.61-1.29-4.51-1-7-6.36-.43-11.25-2.74-17-5 3.94 6.3 9.67 1.59 14.74 6.26 5.07 4.66-9.32 5.18-11.74 5.74Z"/><path fill="#DEF6F2" fill-opacity=".9" stroke="None" d="M633 793c2.22-3.01.46-8.16 1-12-.94 3.54-1 7.77-1 12Z"/><path fill="none" fill-opacity="0" stroke="None" d="M618 788c5.23-5.25-2.76-7.94 0 0Z"/><path fill="#81B8AB" stroke="None" d="M594 788c-3.66-.11-7.34 0-11 0-6.66 2.59-6.1 11.91-4 17 3.32-1.31 8.99-6.67 11-2 4.59-5.32 8.77-10.76 15-14-2.79-1.56-8.36-.92-11-1Z"/><path fill="#DDF6F2" fill-opacity=".83" stroke="None" d="M408 821c-4.63-2.96-10-9.2-13-14 2.74 6.27 7.4 12.04 13 14Z"/><path fill="#D9EFE9" fill-opacity=".85" stroke="None" d="M632 821c3.02 13.64-15.96 11.12-19 2-3.12-.38-3.89 4.34-7 4 .78-4.51 1.44-8.91 0-13 1.18 5.69-3.37 14.36 3.78 12.78 7.14-1.57 6.92 5.38 14.55 4.89 7.63-.49 8.73-4.02 7.67-10.67Z"/><path fill="#DFFAF6" fill-opacity=".85" stroke="None" d="M418 825c8.21 2.39 15.78-.53 22-4-6.19 2.43-15.07 4.97-22 4Z"/><style>path{fill:#fff}@media (prefers-color-scheme:dark){path{fill:#2C8A75}}</style></svg>