<svg xmlns="http://www.w3.org/2000/svg" fill-rule="evenodd" clip-rule="evenodd" image-rendering="optimizeQuality" shape-rendering="geometricPrecision" text-rendering="geometricPrecision" viewBox="0 0 341.45 566.51"><path fill="#636463" d="M128.04 414.78a638 638 0 0 0-49-1.5q-4.95 3.44-9 8-1.43.72-3 .5a19 19 0 0 1-1 6 155 155 0 0 0-20.5 67q-1.29 30.56-3 61-10.41 17.47-27.5 6.5a28 28 0 0 1-4.5-7.5q.14-57.23 20-111a1122 1122 0 0 0 16.5-43 770 770 0 0 0-18.5-29q-39.91-70.58-24-150 15.36-59.82 61.5-100.5a429 429 0 0 1 97-61 6195 6195 0 0 1 141-60q14.07-2.1 18.5 11.5a675 675 0 0 1 18 194q-3.86 70.06-44 127-65 79.47-168.5 82"/><path fill="#4a4b4b" d="M128.04 414.78q-25-.25-50 .5a210 210 0 0 0-12 12.5q.97-2.91 1-6a5 5 0 0 0 3-.5q4.05-4.56 9-8 24.75-.2 49 1.5"/></svg>