<svg xmlns="http://www.w3.org/2000/svg" xml:space="preserve" viewBox="0 0 360 97.27"><g fill="#666"><path d="M314.43 3.52c-.06.01-.3.42-.54.92s-.67 1.33-.97 1.85a25 25 0 0 0-1.95 4.06c-.03.04-.26-.1-.52-.32a11 11 0 0 0-6.67-2.71c-1.51-.02-1.65.15-.75.94a10 10 0 0 1 2.66 4.28 8 8 0 0 1 .2 3.49c-.22 1.76-.2 3.9.05 4.78a9 9 0 0 0 1.29 2.8 9.2 9.2 0 0 0 7.43 4.26c.23.01.42.05.45.09.06.1.6 4.94.76 6.75.18 2.21.3 5.44.3 8.76 0 4.68-.18 7.38-.74 11.79l-.24 1.9c-.19.4-.23 10.78-10.4 10.78-9.24 0-9.84-11.26-14.14-15.56 3.42-2.03 5.73-6.42 5.73-9.42 0-1.8-.83-3.1-2.73-3.1-2.03 0-3.88 1.9-5.35 5l.73-3.84c2.87-3.51 6.84-9.84 6.84-13.58 0-1.75-.88-2.9-3.19-2.9-1.38 0-3 .87-3.88 2.86-1.75 3.96-3.61 13.85-5.16 23.05-2.03 5.01-4.5 7.47-6.7 7.47-2.36 0-3.28-2.4-3.28-5.3 0-4.4 2.07-9.9 4.48-9.9.64 0 .92.66.92 1.63 0 1.38-.6 3.41-1.53 4.98l2.96 1.57a15.5 15.5 0 0 0 1.52-6.23c0-2.68-1.06-4.8-3.69-4.8-4.22 0-7.15 5.15-8.06 10.48h-.02c-2.03 5.31-3.56 7.9-4.76 7.9-.41 0-.92-.24-.92-1.57 0-3.8 1.34-9.15 2.95-16.35h-3.92c-.79 3.32-2.82 10.67-2.82 15.8 0 3.18.83 5.49 3.33 5.49 2.8 0 4.42-2.96 5.9-6.64.27 3.83 1.87 6.87 5.13 6.87 2.88 0 5.29-2.47 7.07-5.25a19 19 0 0 0-.32 4.79h3.74c.32-2.59.74-5.27 1.15-7.9h.05c.41 0 .88-.05 1.3-.1 2.2 4.26 4.89 17 16.57 17 11.48 0 11.73-12.25 11.9-12.89a82 82 0 0 0 .97-14.07c0-5.74-.08-7.48-.68-13.3-.13-1.2-.21-2.2-.19-2.23s.42-.14.89-.26a9.6 9.6 0 0 0 7.1-8.34c.13-1.2.01-2.17-.5-4.11-.6-2.34-.6-3.87 0-5.67.35-1.04.91-2.12 1.63-3.07.35-.48.57-.86.53-.93-.07-.19-.9-.16-1.72.04a13 13 0 0 0-3.43 1.71c-.4.3-1.12.94-1.6 1.42-.49.5-.89.88-.9.86-.02-.01-.26-.43-.53-.92-.54-1-.97-1.66-1.87-2.77-.34-.43-.8-1.04-1.02-1.36-.46-.7-.71-.98-.84-.98m-288.1.56c-.09 0-.3.15-.47.34-.4.45-.95 1.26-1.33 1.97a3 3 0 0 1-.35.57 4 4 0 0 1-.43-.57c-.61-.9-1.86-2.04-2.23-2.04-.2 0-.46.47-.74 1.32-.14.41-.27.75-.3.75-.04 0-.25-.15-.49-.32-.59-.46-1.32-.78-1.46-.65-.2.16-.39.97-.5 2.1l-.1 1.1-.28-.16a10 10 0 0 0-2.18-.76c-.3-.04-.4-.02-.53.1-.24.23-.13 1.96.18 3.08.13.46.22.85.2.88-.02.02-.38-.03-.79-.12-.98-.2-2.7-.22-3.1-.02-.24.11-.27.17-.24.48.07.9.71 2.27 1.59 3.44q.6.79.32.61a7 7 0 0 0-2.44.14c-.8.2-1.77.65-1.84.85-.06.14.22.71.62 1.3.34.5 1.27 1.42 1.81 1.82l.41.3-.47.18a8 8 0 0 0-1.74.94c-.69.5-1.3 1.1-1.3 1.27 0 .23.9 1.03 1.64 1.43.34.19.87.41 1.18.5l.6.2c0 .03-.14.25-.33.5-.72.93-1.38 2.27-1.38 2.77 0 .37 2.4.88 3.67.78.3-.01.54 0 .56.03 0 .04-.14.37-.32.75-.34.74-.76 2.33-.76 2.87 0 .3.03.34.3.39.17.03.55.02.85-.02l.54-.08-.02.63v.64l.54-.03a6 6 0 0 0 2.3-.66l.56-.26c.02 0 .03.43.03.96 0 1.53.34 2.82.73 2.82.1 0 .48-.18.87-.4.4-.23.74-.4.78-.4s.17.26.3.6c.28.68.46.92.68.92.34 0 1.4-1.09 1.87-1.9a2 2 0 0 1 .29-.44c.04.02.21.36.39.8A13 13 0 0 0 25.6 39c.03.01.05.16.04.33-.02.2-.07 3.46-.12 7.28l-.16 7.97c-.04 1.4-.1 2.44-.16 3.3 2.12 8.75 17.64 14.45 17.64 14.45 2.45 0 4.99-.6 7.39-2.17 2.35.92 5.86 1.94 11.4 1.94 12.66 0 20.46-15.05 20.46-28.72 0-16.17-9.7-23.47-20.69-23.47-9.74 0-19.53 6.75-19.53 19.72 0 7.76 4.2 15.15 12.93 16.3-1.25 5.41-2.77 9.29-4.85 11.32-2.08-.88-3.88-1.62-5.96-1.62-5.47-.38-16.31-3.16-16.5-11.08l-.1-5.16-.1-7.47-.05-3.88.23-.3c.27-.37.72-1.27 1.01-2 .12-.29.24-.52.27-.52.03.01.24.25.46.55.78 1.04 1.95 1.97 2.5 1.97.44 0 1.28-2.27 1.28-3.47 0-.17.03-.31.06-.31s.33.16.67.36c.86.5 1.74.82 2.32.84l.5.02.12-.4q.14-.42.15-1.58c0-.96-.04-1.31-.2-1.89a3 3 0 0 1-.15-.75c.02-.03.4.04.83.16.86.23 3.2.37 3.36.2.22-.2-.45-2.22-.99-2.98-.1-.14-.19-.28-.19-.3v-.01c.03-.02.34-.09.7-.15 1.16-.18 2.45-.76 2.45-1.09 0-.4-1-1.51-1.91-2.14l-.45-.3.82-.39a5 5 0 0 0 2-1.69c0-.35-1.8-1.56-2.88-1.93l-.3-.11.53-.39a6 6 0 0 0 1.74-1.99c.38-.74.36-.92-.11-1.13a8 8 0 0 0-2.28-.56l-.82-.1.42-.56c.24-.31.57-.84.74-1.18.37-.74.68-1.8.56-1.92-.15-.15-1.41-.29-2.27-.25-.73.02-.84.01-.8-.11.04-.07.16-.43.29-.8.17-.46.24-.88.25-1.35l.02-.69-.5.02c-.28.02-.8.1-1.17.2-.37.09-.67.16-.68.15l.08-.74c.06-.47.06-.9 0-1.18l-.07-.43-.37.02c-.42.02-1.49.43-2.13.84-.37.24-.42.3-.47.7a11 11 0 0 1-2.35 5.31c-.63.8-.63.77-.18 1.02.19.1.16.13.72-.66.83-1.2 1.89-2.16 3.25-2.97a8 8 0 0 1 2.1-.85l.38-.06-.19.49a10.6 10.6 0 0 1-3.81 4.88c-.72.53-.79.63-.56.85.09.1.27.04.9-.29 1.03-.5 1.7-1 2.7-1.99.75-.74.83-.8 1.43-.96.36-.09.97-.2 1.37-.22l.7-.06-.15.26a14 14 0 0 1-4.93 4.47 9 9 0 0 0-.83.51c-.02.03 0 .17.06.3l.1.26.58-.4a9 9 0 0 1 2.7-1.28 10 10 0 0 1 1.67-.15c1.05 0 2.4.16 2.4.3 0 .58-2.31 2.1-3.99 2.63-.76.24-2.14.5-2.6.5-.24 0-.26.03-.2.25q.05.24.09.29c.03.02.36-.04.75-.12a9 9 0 0 1 5.75.87c.89.42.89.4-.21.93a8.4 8.4 0 0 1-5.85.49l-.5-.17-.09.22c-.05.13-.07.26-.04.3.07.12 1.62.61 2.24.72.3.05.86.1 1.27.1.73 0 .74 0 1.47.47 1.05.66 1.86 1.27 1.84 1.37-.03.14-.37.21-1.1.22-1.09.01-1.8-.19-3.43-.97-.82-.39-1.72-.8-2-.9l-.52-.2-.13.33c-.08.18-.14.35-.14.4.02.02.34.14.75.25s1.12.39 1.6.62c.72.35.95.53 1.66 1.24q1.18 1.2 1.64 2.37c.08.2.11.4.09.43-.15.15-2.71-.6-3.62-1.06a15 15 0 0 1-2.32-1.47l-.88-.65-.18.22-.17.23.51.38c.28.21.83.72 1.22 1.13a7.6 7.6 0 0 1 1.77 3.33c.22.93.24 1.89.06 1.89a11.6 11.6 0 0 1-4.86-4.84 3 3 0 0 0-.4-.65c-.04 0-.2.08-.36.18l-.3.18.2.25c1.38 1.8 1.82 3 1.83 4.93 0 1.14-.15 2.24-.33 2.34-.2.13-1.7-1.71-2.35-2.86-.53-.93-.98-2.35-1.18-3.68l-.05-.32-.37.06c-.2.04-.37.08-.39.1 0 .03.07.35.18.72q.8 2.64-.1 5.35a13 13 0 0 1-1.02 2.11c-.12 0-.56-.82-.86-1.6a9 9 0 0 1-.4-5.82c.22-.77.19-.86-.3-.86-.12 0-.3-.03-.37-.05-.1-.04-.15.09-.24.56a8 8 0 0 1-2.16 4.07c-.9.94-2.3 1.9-2.52 1.77-.09-.06-.06-.54.1-1.76a9.4 9.4 0 0 1 2.29-4.84c.23-.26.4-.5.35-.55l-.44-.33-.35-.25-.4.49c-1.76 2.1-3.8 3.31-6.01 3.58-.7.08-.69.1-.3-.86.75-1.8 2.1-3.24 4.2-4.48l.74-.43-.14-.28c-.27-.53-.28-.53-.9-.05-.7.53-2.03 1.19-2.88 1.43a9 9 0 0 1-4.25.14c-.08-.08.8-1.05 1.43-1.55.6-.5 1.55-1 2.41-1.3a23 23 0 0 1 2.65-.67q.45-.05.38-.18l-.1-.44a1 1 0 0 0-.1-.32l-.56.22c-1.1.46-1.8.6-3.15.65q-1.3.05-1.94-.06c-.75-.14-2.2-.58-2.43-.75-.16-.11-.14-.14.26-.41a9.2 9.2 0 0 1 6.4-1.41c1.32.16 1.38.14 1.39-.27 0-.1.03-.27.05-.37.06-.2.05-.2-.67-.15a9 9 0 0 1-4.6-1c-1.07-.55-2.51-1.64-2.4-1.84.12-.18 1.33-.33 2.71-.32 1.84.01 2.67.2 4.97 1.1l.46.19.14-.28.13-.29-1.09-.55a11 11 0 0 1-3.21-2.2c-.67-.66-1.6-1.95-1.8-2.47l-.1-.26.44.06c.71.1 1.95.55 3.21 1.18a16 16 0 0 1 3.17 2.11c.32.25.4.29.53.19q.12-.11.13-.19c0-.05-.4-.48-.87-.95a10.3 10.3 0 0 1-3.14-5.54l-.07-.44.47.18a10.4 10.4 0 0 1 3.9 3.09c.48.62 1.46 2.12 1.53 2.34.03.1.3.03.54-.15.14-.1.1-.2-.5-1.26a9 9 0 0 1-1.5-4.8c0-1.38.1-1.45 1-.7a9.2 9.2 0 0 1 2.84 5.39l.06.6.46-.06.47-.07-.21-1.04a8.7 8.7 0 0 1 1.14-6.5l.24-.3.28.54a9.4 9.4 0 0 1 .83 6.47c-.1.43-.19.8-.17.81l.44.1.4.05.17-.7a9.2 9.2 0 0 1 3.36-4.94q.67-.5.66-.7c0-.8-.45-2.2-.82-2.54-.16-.14-.2-.13-.67.16a9 9 0 0 0-2.29 2.42 1 1 0 0 1-.2-.43c-.35-.99-1.7-2.9-2.05-2.9m288.13 4.38c.05 0 .45.43.88.95q4.35 5.24 5.33 9.27a10 10 0 0 1 .14 3.65 6.5 6.5 0 0 1-1.98 3.65 4 4 0 0 1-2.96 1.21c-1.5 0-2.89-.8-3.84-2.24a7 7 0 0 1-1.18-4.28c.01-2.34.58-4.46 2.41-9.07.37-.9.75-1.96.86-2.34.22-.76.24-.8.34-.8m-40.62 11.5c-8.68 0-16.58 13.9-19.58 32.28-1.9-5.12-4.11-10.02-5.91-14.4 0-5.18-.56-9.98-1.71-13.77l-3.93.74c0 5.82 1.3 11.55 3.05 17-1.34 14.03-8.26 27.29-18.33 27.29-6.42 0-9.1-4.76-9.1-9.93 0-6.19 3.79-12.98 9.51-12.98 3.33 0 5.08 2.4 5.08 5.68 0 1.94-.64 4.25-1.98 6.47l3.88 2.12a14.7 14.7 0 0 0 2.21-7.52c0-5.13-3.1-9.43-8.86-9.43-8.87 0-13.95 7.95-13.95 15.43 0 6.65 4.02 12.93 12.98 12.93 12.05 0 18.38-12 20.4-24.85 1.95 5.18 4.07 9.98 5.6 14.23a59 59 0 0 0-.14 4.06q0 3.35.41 6.56h3.98v-1.8c0-4.16-.33-8.4-1.44-12.52 2.36-20.73 10.4-33.25 17.41-33.25 2.18 0 3.88.7 4.8 2.08l2.4-3.79c-1.52-1.66-3.6-2.63-6.78-2.63M61.45 22.22c8.64 0 15.66 6.6 15.66 22.26 0 12.2-5.4 25.31-15.48 25.31-3.92 0-6.78-.7-9.1-1.52 2.45-2.54 4.67-6.42 6.33-12.24 7.76-.74 12.24-6.74 12.24-12.65 0-2.45-.78-4.9-2.4-6.93l-3.42 3.05a8 8 0 0 1 1.57 4.85 9.4 9.4 0 0 1-7.34 9.18c.6-2.54 1.06-5.35 1.48-8.58 1.01-8.46 2.17-13.44 3.46-17.1l-4.3-1.05c-1.24 3.69-2.26 9.5-3.46 18.15a187 187 0 0 1-1.43 8.63c-6.28-1.1-9.37-7.39-9.37-13.76 0-10.35 7.06-17.6 15.56-17.6m231.46 5.31c.23 0 .42.24.42.65 0 .1-.05.23-.05.37-.55 2.73-2.03 6.1-3.37 8.6 1.66-7.68 2.26-9.62 3-9.62m-96.84.33c-4.9 0-6.93 4.3-6.93 10.02 0 1.57.14 3.28.46 5.03a13.4 13.4 0 0 0-5.17 10.4c0 4.52 2.73 8.54 8.92 8.54 1.61 0 3.04-.42 4.29-1.06 2.63 3 5.77 4.94 9.1 4.94 2.17 0 3.55-.6 4.99-2.08l-1.94-1.99c-.74 1.16-1.71 1.85-3.1 1.85-2.35 0-4.57-1.9-6.56-4.76 2.45-2.77 3.7-7.15 3.88-12.05 1.3 0 2.27-.05 2.27-.05l.37-2.26h-8.36l-.37 2.26q1.03.06 1.98.05c-.04 4.25-.23 7.62-1.15 9.84-3.37-6.05-5.68-14.69-5.68-20.42 0-3.5.88-5.95 2.95-5.95 1.34 0 2.04 1.15 2.04 2.63 0 1.2-.47 2.59-1.44 3.79l2.68 2.07a7.6 7.6 0 0 0 2.08-5.26c0-2.86-1.62-5.54-5.31-5.54m-80.08 3.78c-2.03 0-3.23 2-3.23 3.65 0 1.25.7 2.36 2.17 2.36 2.03 0 3.23-1.94 3.23-3.6 0-1.3-.65-2.4-2.17-2.4m56.34 0c-2.03 0-3.23 2-3.23 3.65 0 1.25.7 2.36 2.17 2.36 2.03 0 3.23-1.94 3.23-3.6 0-1.3-.64-2.4-2.17-2.4m95.04 0c-2.03 0-3.23 2-3.23 3.65 0 1.25.7 2.36 2.17 2.36 2.03 0 3.24-1.94 3.24-3.6 0-1.3-.65-2.4-2.18-2.4M101.07 34a20 20 0 0 0-1.06 5.73c0 1.61.37 2.86.83 3.88a46 46 0 0 1-1.9 6.74c-.82 2.17-1.93 3.32-3.13 3.88a24 24 0 0 0 1.15-6.65c0-4.16-1.61-7.71-4.7-7.71-3.29 0-5.23 3.09-5.73 6.65l-1.67-.42a26 26 0 0 0-1.43 8.22c0 4.2 1.39 7.53 4.57 7.53 2.96 0 5.32-1.99 6.89-5.36a9.3 9.3 0 0 0 5.35-5.5l1.85-4.89c.5.97.92 2.03.92 3.42 0 2.35-2.12 5.63-2.12 8.63 0 2.08.83 3.47 3 3.47 2.56 0 4.12-2.44 5.5-5.65v.15c0 3.19.83 5.5 3.32 5.5 2.5 0 4.05-2.34 5.4-5.44.04 3.27.97 5.67 3.2 5.67 2.67 0 4.29-2.45 5.35-5.27v.51c0 3.19.83 4.53 2.3 4.53 1.32 0 2.69-1.24 4.2-3.93-.43 2.07-.59 3.7-.59 3.7h4.02l1.84-9.56c1.53-6.52 3.56-8.69 4.72-8.69.5 0 .73.42.73.93 0 3.32-3 8.45-3 13.44 0 2.81 1.53 4.1 3.14 4.1 2.02 0 3.56-1.52 4.85-3.73-.4 1.97-.55 3.5-.55 3.5h4.02l1.84-9.55c1.53-6.52 3.56-8.69 4.71-8.69.51 0 .74.42.74.93 0 3.32-3 8.45-3 13.44 0 2.81 1.52 4.1 3.14 4.1 2.62 0 4.43-2.56 5.96-5.9v.41c0 3.19.83 5.5 3.32 5.5 3.79 0 5.4-5.36 7.44-10.62v-.05c0-.28-1.06-.6-1.3-.6-2.03 5.31-3.55 7.9-4.75 7.9-.42 0-.92-.24-.92-1.57 0-3.8 1.33-9.15 2.95-16.35h-3.92c-.54 2.25-1.64 6.33-2.3 10.33-1.97 5.1-3.45 7.59-4.63 7.59-.42 0-.93-.24-.93-1.57 0-3.8 3-9.29 3-13.58 0-2.22-1.06-3.28-2.67-3.28-1.94 0-3.79 1.38-5.27 3.6l.51-3.1h-3.97a691 691 0 0 1-1.68 10.07c-2.02 5.28-3.54 7.86-4.74 7.86-.42 0-.92-.24-.92-1.57 0-3.8 3-9.29 3-13.58 0-2.22-1.06-3.28-2.68-3.28-1.94 0-3.79 1.38-5.26 3.6l.5-3.1h-3.97c-.43 2.75-1 6.2-1.68 10.07-2.2 5.7-4.14 7.9-4.65 7.9q-.35.01-.36-1.01c0-.33 0-.7.09-1.2.64-4.58 1.52-9.56 2.9-15.7h-3.27l-.51 2.58q-.46-3.11-3-3.1c-3.26 0-6.06 5.3-7.28 10.69-2 5.18-3.5 7.7-4.68 7.7-.42 0-.93-.24-.93-1.57 0-3.8 1.34-9.15 2.96-16.35h-3.93c-.53 2.25-1.63 6.33-2.29 10.33-1.97 5.1-3.54 7.45-4.54 7.45-.46 0-.74-.28-.74-.97 0-1.62 2.12-5.45 2.12-8.4 0-2.64-1.98-4.49-3.5-6.06.73-2.4 1.1-4.62 1.29-7.66zm-9.5 8.82c1.28 0 1.8 1.57 1.8 3.65 0 2.45-.7 5.68-1.72 8.13-2.08-.6-2.81-3-2.81-5.5 0-2.95 1.06-5.96 2.4-6.23.09 0 .23-.05.32-.05m34.72.37c1.02 0 1.43 1.2 1.43 2.91 0 4.3-2.63 11.82-4.76 11.82-.69 0-.97-.97-.97-2.4 0-4.2 2.36-12.33 4.3-12.33m165.8 0c.55 0 .78.37.78.92 0 1.76-2.13 5.31-4.16 6.98a5 5 0 0 0-1.48-.28l.23-1.43c1.99-4.62 3.51-6.19 4.62-6.19M190.1 45.41a38 38 0 0 0 6.2 13.71q-1.05.48-2.5.46c-3.42 0-5.22-3.74-5.22-7.9 0-2.16.46-4.43 1.52-6.27M86.85 51.73c.65 2.22 1.9 4.07 3.83 4.8-.55.93-1.1 1.58-1.7 1.76q-.19.06-.38.05c-1.15 0-1.89-1.9-1.89-4.62 0-.6.05-1.3.14-1.99" font-family="Lavanderia" font-size="46.18" font-weight="420" style="-inkscape-font-specification:&quot;Lavanderia weight=420&quot;"/><path d="M24.72 14.52a7.27 7.27 0 0 0-4.2 11.64 6.6 6.6 0 0 0 2.44 1.81c1.87.9 3.47.99 5.48.31 3.95-1.31 5.8-5.45 4.23-9.48a9 9 0 0 0-1.32-2.14 7 7 0 0 0-3.27-1.97 11 11 0 0 0-3.36-.17m9.95 26.11c-3.33.3-5.4 1.86-6.46 4.9-.19.54-.22.73-.14.78a7.7 7.7 0 0 0 5.42-.7c.94-.52 1.53-1.08 2.99-2.83.74-.9 1.54-1.68 2.05-2.01l.36-.24-1.67.01c-.92 0-2.06.05-2.55.09m266.63-7.8a20.7 20.7 0 0 0 3.92 11.62c1.5 2 3.05 3.4 5.24 4.73 1.47.9 4.26 2.11 4.44 1.93.23-.23-1.28-4.65-2.42-7.13-1.93-4.18-4.82-7.7-8.14-9.93-1-.67-2.48-1.43-2.78-1.43q-.2 0-.25.2m27.06 2.02a16 16 0 0 0-5.59 5.23 23 23 0 0 0-2.14 4.47c-.6 1.77-1.05 4-1.2 5.85l-.07.71.62-.31c3.24-1.63 5.23-3.43 6.9-6.24a19.5 19.5 0 0 0 2.6-8.8c.1-1.4 0-1.5-1.12-.9"/></g></svg>